<svg width="183" height="194" viewBox="0 0 183 194" fill="none" xmlns="http://www.w3.org/2000/svg">
<path d="M75.5859 146H8.50781V136.648L43.9453 97.2734C49.1953 91.3203 52.8047 86.4922 54.7734 82.7891C56.7891 79.0391 57.7969 75.1719 57.7969 71.1875C57.7969 65.8438 56.1797 61.4609 52.9453 58.0391C49.7109 54.6172 45.3984 52.9062 40.0078 52.9062C33.5391 52.9062 28.5 54.7578 24.8906 58.4609C21.3281 62.1172 19.5469 67.2266 19.5469 73.7891H6.53906C6.53906 64.3672 9.5625 56.75 15.6094 50.9375C21.7031 45.125 29.8359 42.2188 40.0078 42.2188C49.5234 42.2188 57.0469 44.7266 62.5781 49.7422C68.1094 54.7109 70.875 61.3438 70.875 69.6406C70.875 79.7188 64.4531 91.7188 51.6094 105.641L24.1875 135.383H75.5859V146ZM132.117 146H119.039V59.3047L92.8125 68.9375V57.125L130.078 43.1328H132.117V146Z" fill="#E10303"/>
<path d="M154.832 92.1133H148.984V103H146.805V90.3203H154.832V92.1133ZM155.91 96.543C155.91 95.3008 156.152 94.1836 156.637 93.1914C157.129 92.1992 157.809 91.4336 158.676 90.8945C159.551 90.3555 160.547 90.0859 161.664 90.0859C163.391 90.0859 164.785 90.6836 165.848 91.8789C166.918 93.0742 167.453 94.6641 167.453 96.6484V96.8008C167.453 98.0352 167.215 99.1445 166.738 100.129C166.27 101.105 165.594 101.867 164.711 102.414C163.836 102.961 162.828 103.234 161.688 103.234C159.969 103.234 158.574 102.637 157.504 101.441C156.441 100.246 155.91 98.6641 155.91 96.6953V96.543ZM158.09 96.8008C158.09 98.207 158.414 99.3359 159.062 100.188C159.719 101.039 160.594 101.465 161.688 101.465C162.789 101.465 163.664 101.035 164.312 100.176C164.961 99.3086 165.285 98.0977 165.285 96.543C165.285 95.1523 164.953 94.0273 164.289 93.168C163.633 92.3008 162.758 91.8672 161.664 91.8672C160.594 91.8672 159.73 92.293 159.074 93.1445C158.418 93.9961 158.09 95.2148 158.09 96.8008ZM169.223 101.23L169.973 100.305C170.816 99.2109 171.297 97.5703 171.414 95.3828L171.613 90.3203H179.781V101.23H181.41V106.727H179.242V103H170.395V106.727H168.227L168.238 101.23H169.223ZM171.789 101.23H177.613V92.3242H173.711L173.582 95.3477C173.449 97.8711 172.852 99.832 171.789 101.23Z" fill="#E10303"/>
</svg>
