<svg width="251" height="194" viewBox="0 0 251 194" fill="none" xmlns="http://www.w3.org/2000/svg">
<path d="M55.8984 100.297L9.42188 82.0859V68.7266L69.4688 95.3047V105.57L9.42188 132.219V118.719L55.8984 100.297ZM102.656 88.4844H112.43C118.57 88.3906 123.398 86.7734 126.914 83.6328C130.43 80.4922 132.188 76.25 132.188 70.9062C132.188 58.9062 126.211 52.9062 114.258 52.9062C108.633 52.9062 104.133 54.5234 100.758 57.7578C97.4297 60.9453 95.7656 65.1875 95.7656 70.4844H82.7578C82.7578 62.375 85.7109 55.6484 91.6172 50.3047C97.5703 44.9141 105.117 42.2188 114.258 42.2188C123.914 42.2188 131.484 44.7734 136.969 49.8828C142.453 54.9922 145.195 62.0938 145.195 71.1875C145.195 75.6406 143.742 79.9531 140.836 84.125C137.977 88.2969 134.062 91.4141 129.094 93.4766C134.719 95.2578 139.055 98.2109 142.102 102.336C145.195 106.461 146.742 111.5 146.742 117.453C146.742 126.641 143.742 133.93 137.742 139.32C131.742 144.711 123.938 147.406 114.328 147.406C104.719 147.406 96.8906 144.805 90.8438 139.602C84.8438 134.398 81.8438 127.531 81.8438 119H94.9219C94.9219 124.391 96.6797 128.703 100.195 131.938C103.711 135.172 108.422 136.789 114.328 136.789C120.609 136.789 125.414 135.148 128.742 131.867C132.07 128.586 133.734 123.875 133.734 117.734C133.734 111.781 131.906 107.211 128.25 104.023C124.594 100.836 119.32 99.1953 112.43 99.1016H102.656V88.4844ZM228.797 102.336C228.797 117.57 226.195 128.891 220.992 136.297C215.789 143.703 207.656 147.406 196.594 147.406C185.672 147.406 177.586 143.797 172.336 136.578C167.086 129.312 164.367 118.484 164.18 104.094V86.7266C164.18 71.6797 166.781 60.5 171.984 53.1875C177.188 45.875 185.344 42.2188 196.453 42.2188C207.469 42.2188 215.578 45.7578 220.781 52.8359C225.984 59.8672 228.656 70.7422 228.797 85.4609V102.336ZM215.789 84.5469C215.789 73.5312 214.242 65.5156 211.148 60.5C208.055 55.4375 203.156 52.9062 196.453 52.9062C189.797 52.9062 184.945 55.4141 181.898 60.4297C178.852 65.4453 177.281 73.1562 177.188 83.5625V104.375C177.188 115.438 178.781 123.617 181.969 128.914C185.203 134.164 190.078 136.789 196.594 136.789C203.016 136.789 207.773 134.305 210.867 129.336C214.008 124.367 215.648 116.539 215.789 105.852V84.5469Z" fill="#E10303"/>
<rect x="157" y="81" width="88" height="32" fill="#F7F7F9"/>
<path d="M157.012 103H154.844V92.1133H149.008V103H146.828V90.3203H157.012V103ZM171.203 96.8008C171.203 98.7305 170.762 100.285 169.879 101.465C168.996 102.645 167.801 103.234 166.293 103.234C164.754 103.234 163.543 102.746 162.66 101.77V107.875H160.492V90.3203H162.473L162.578 91.7266C163.461 90.6328 164.688 90.0859 166.258 90.0859C167.781 90.0859 168.984 90.6602 169.867 91.8086C170.758 92.957 171.203 94.5547 171.203 96.6016V96.8008ZM169.035 96.5547C169.035 95.125 168.73 93.9961 168.121 93.168C167.512 92.3398 166.676 91.9258 165.613 91.9258C164.301 91.9258 163.316 92.5078 162.66 93.6719V99.7305C163.309 100.887 164.301 101.465 165.637 101.465C166.676 101.465 167.5 101.055 168.109 100.234C168.727 99.4062 169.035 98.1797 169.035 96.5547ZM173.395 96.543C173.395 95.3008 173.637 94.1836 174.121 93.1914C174.613 92.1992 175.293 91.4336 176.16 90.8945C177.035 90.3555 178.031 90.0859 179.148 90.0859C180.875 90.0859 182.27 90.6836 183.332 91.8789C184.402 93.0742 184.938 94.6641 184.938 96.6484V96.8008C184.938 98.0352 184.699 99.1445 184.223 100.129C183.754 101.105 183.078 101.867 182.195 102.414C181.32 102.961 180.312 103.234 179.172 103.234C177.453 103.234 176.059 102.637 174.988 101.441C173.926 100.246 173.395 98.6641 173.395 96.6953V96.543ZM175.574 96.8008C175.574 98.207 175.898 99.3359 176.547 100.188C177.203 101.039 178.078 101.465 179.172 101.465C180.273 101.465 181.148 101.035 181.797 100.176C182.445 99.3086 182.77 98.0977 182.77 96.543C182.77 95.1523 182.438 94.0273 181.773 93.168C181.117 92.3008 180.242 91.8672 179.148 91.8672C178.078 91.8672 177.215 92.293 176.559 93.1445C175.902 93.9961 175.574 95.2148 175.574 96.8008ZM192.918 103.234C191.199 103.234 189.801 102.672 188.723 101.547C187.645 100.414 187.105 98.9023 187.105 97.0117V96.6133C187.105 95.3555 187.344 94.2344 187.82 93.25C188.305 92.2578 188.977 91.4844 189.836 90.9297C190.703 90.3672 191.641 90.0859 192.648 90.0859C194.297 90.0859 195.578 90.6289 196.492 91.7148C197.406 92.8008 197.863 94.3555 197.863 96.3789V97.2812H189.273C189.305 98.5312 189.668 99.543 190.363 100.316C191.066 101.082 191.957 101.465 193.035 101.465C193.801 101.465 194.449 101.309 194.98 100.996C195.512 100.684 195.977 100.27 196.375 99.7539L197.699 100.785C196.637 102.418 195.043 103.234 192.918 103.234ZM192.648 91.8672C191.773 91.8672 191.039 92.1875 190.445 92.8281C189.852 93.4609 189.484 94.3516 189.344 95.5H195.695V95.3359C195.633 94.2344 195.336 93.3828 194.805 92.7812C194.273 92.1719 193.555 91.8672 192.648 91.8672ZM204.332 97.5977H202.75V103H200.57V90.3203H202.75V95.6875H204.168L208.434 90.3203H211.059L206.043 96.4141L211.48 103H208.727L204.332 97.5977ZM222.766 92.0781H218.512V103H216.344V92.0781H212.172V90.3203H222.766V92.0781ZM223.809 96.543C223.809 95.3008 224.051 94.1836 224.535 93.1914C225.027 92.1992 225.707 91.4336 226.574 90.8945C227.449 90.3555 228.445 90.0859 229.562 90.0859C231.289 90.0859 232.684 90.6836 233.746 91.8789C234.816 93.0742 235.352 94.6641 235.352 96.6484V96.8008C235.352 98.0352 235.113 99.1445 234.637 100.129C234.168 101.105 233.492 101.867 232.609 102.414C231.734 102.961 230.727 103.234 229.586 103.234C227.867 103.234 226.473 102.637 225.402 101.441C224.34 100.246 223.809 98.6641 223.809 96.6953V96.543ZM225.988 96.8008C225.988 98.207 226.312 99.3359 226.961 100.188C227.617 101.039 228.492 101.465 229.586 101.465C230.688 101.465 231.562 101.035 232.211 100.176C232.859 99.3086 233.184 98.0977 233.184 96.543C233.184 95.1523 232.852 94.0273 232.188 93.168C231.531 92.3008 230.656 91.8672 229.562 91.8672C228.492 91.8672 227.629 92.293 226.973 93.1445C226.316 93.9961 225.988 95.2148 225.988 96.8008ZM238.27 103V90.3203H243.215C244.902 90.3203 246.195 90.6172 247.094 91.2109C248 91.7969 248.453 92.6602 248.453 93.8008C248.453 94.3867 248.277 94.918 247.926 95.3945C247.574 95.8633 247.055 96.2227 246.367 96.4727C247.133 96.6523 247.746 97.0039 248.207 97.5273C248.676 98.0508 248.91 98.6758 248.91 99.4023C248.91 100.566 248.48 101.457 247.621 102.074C246.77 102.691 245.562 103 244 103H238.27ZM240.438 97.4336V101.254H244.023C244.93 101.254 245.605 101.086 246.051 100.75C246.504 100.414 246.73 99.9414 246.73 99.332C246.73 98.0664 245.801 97.4336 243.941 97.4336H240.438ZM240.438 95.6992H243.238C245.27 95.6992 246.285 95.1055 246.285 93.918C246.285 92.7305 245.324 92.1172 243.402 92.0781H240.438V95.6992Z" fill="#E10303"/>
</svg>
