<svg width="52" height="66" viewBox="0 0 52 66" fill="none" xmlns="http://www.w3.org/2000/svg">
<path d="M47.5178 11.6663C47.9866 12.1351 48.25 12.771 48.25 13.434V62.0039C48.25 63.3846 47.1307 64.5039 45.75 64.5039H3C1.61929 64.5039 0.5 63.3846 0.5 62.0039V3.00391C0.5 1.62319 1.61929 0.503906 3 0.503906H35.3199C35.9829 0.503906 36.6188 0.767298 37.0876 1.23614L47.5178 11.6663Z" fill="white" stroke="#E10303"/>
<path d="M48.75 13.1914H36.5625V1.00391" fill="#E10303"/>
<path d="M49.8617 61.3441L41.1511 52.6335L38.6333 55.1513L47.3439 63.8619C48.0393 64.5573 49.1667 64.5573 49.8617 63.8619C50.5571 63.1669 50.5571 62.0395 49.8617 61.3441Z" fill="#E10303"/>
<path d="M44.4983 55.9808L41.1511 52.6335L38.6333 55.1513L41.9805 58.4985C42.9341 57.7822 43.7819 56.9343 44.4983 55.9808Z" fill="#E10303"/>
<path d="M45.3474 47.5981C45.3474 54.5507 39.7111 60.187 32.7586 60.187C25.806 60.187 20.1697 54.5507 20.1697 47.5981C20.1697 40.6455 25.806 35.0092 32.7586 35.0092C39.7111 35.0092 45.3474 40.6455 45.3474 47.5981Z" fill="white"/>
<path d="M45.0397 54.4989L44.9324 54.6062C48.6045 48.704 47.1875 40.9773 41.6598 36.7622C36.132 32.5466 28.3058 33.2248 23.5854 38.328C18.865 43.4312 18.7977 51.2865 23.4305 56.4692C28.0632 61.6522 35.8767 62.464 41.4754 58.3435L47.528 64.3962C48.5513 65.4195 50.2097 65.4195 51.2326 64.3962C52.2558 63.3734 52.2558 61.7149 51.2326 60.6921L45.0397 54.4989ZM21.7864 47.5389C21.7864 41.0498 27.0469 35.7893 33.536 35.7893C40.0251 35.7893 45.2856 41.0498 45.2856 47.5389C45.2856 54.028 40.0251 59.2885 33.536 59.2885C27.0498 59.2816 21.7933 54.0251 21.7864 47.5389ZM49.3803 63.4848C49.1307 63.4856 48.8914 63.3865 48.7148 63.2099L42.7678 57.2633C43.2248 56.8314 43.6505 56.3679 44.0427 55.8762L50.045 61.8784C50.3142 62.1477 50.3949 62.5521 50.2495 62.9037C50.104 63.2553 49.761 63.4848 49.3803 63.4848Z" fill="#E10303"/>
</svg>
