<svg width="35" height="42" fill="none" xmlns="http://www.w3.org/2000/svg">
  <g clip-path="url(#prefix__clip0)">
    <path
      d="M34.697 36.487l-4.407-5.665a6.377 6.377 0 003.486-2.58c1.038-1.794.569-3.983.115-6.098a16.648 16.648 0 01-.49-3.316c.05-1.12.215-2.233.49-3.32.451-2.116.923-4.303-.115-6.094-1.074-1.857-3.238-2.544-5.33-3.207a15.51 15.51 0 01-3.01-1.18c-.872-.564-1.68-1.22-2.413-1.954C21.47 1.63 19.71 0 17.47 0c-2.24 0-4.001 1.631-5.555 3.072a14.71 14.71 0 01-2.41 1.956c-.96.495-1.97.89-3.01 1.176-2.093.663-4.257 1.35-5.332 3.207-1.037 1.794-.568 3.983-.114 6.097.275 1.087.439 2.2.49 3.32a16.649 16.649 0 01-.49 3.319c-.452 2.116-.924 4.304.114 6.094a6.378 6.378 0 003.49 2.58l-4.41 5.665a.724.724 0 00.661 1.163l5.178-.646 1.278 4.472a.724.724 0 001.268.245l4.624-5.948a6.696 6.696 0 004.218 1.883 6.696 6.696 0 004.217-1.883l4.624 5.946a.724.724 0 001.268-.243l1.278-4.472 5.178.647a.724.724 0 00.662-1.163zM8.36 39.705l-1.057-3.697a.724.724 0 00-.785-.52l-4.055.507 3.634-4.672.4.128c1.04.287 2.048.68 3.007 1.176.87.565 1.68 1.22 2.412 1.956l.25.23-3.806 4.892zm9.11-3.498c-1.673 0-3.08-1.304-4.57-2.685a15.96 15.96 0 00-2.672-2.149 16.792 16.792 0 00-3.297-1.303c-1.914-.608-3.722-1.181-4.516-2.553-.757-1.31-.366-3.135.049-5.069.299-1.185.474-2.399.523-3.62a17.727 17.727 0 00-.522-3.621c-.415-1.933-.806-3.758-.049-5.07.797-1.37 2.602-1.944 4.516-2.552a16.795 16.795 0 003.296-1.303 15.963 15.963 0 002.67-2.149c1.492-1.381 2.899-2.685 4.572-2.685 1.672 0 3.08 1.304 4.57 2.685.81.81 1.706 1.53 2.671 2.149 1.05.55 2.155.986 3.297 1.303 1.914.608 3.722 1.181 4.516 2.553.757 1.31.366 3.135-.049 5.069a17.737 17.737 0 00-.523 3.62c.049 1.222.224 2.436.522 3.621.415 1.933.806 3.759.049 5.07-.797 1.37-2.602 1.944-4.516 2.552a16.79 16.79 0 00-3.296 1.303 15.955 15.955 0 00-2.67 2.149c-1.492 1.381-2.899 2.685-4.571 2.685zm10.955-.718a.724.724 0 00-.786.519l-1.06 3.697-3.804-4.891.249-.23c.732-.736 1.54-1.391 2.411-1.957a15.5 15.5 0 013.01-1.176l.4-.128 3.635 4.672-4.055-.506z"
      fill="#000" />
    <path
      d="M17.47 5.793c-7.199 0-13.034 5.836-13.034 13.035 0 7.198 5.835 13.034 13.034 13.034 7.199 0 13.035-5.836 13.035-13.034-.009-7.196-5.84-13.026-13.035-13.035zm0 24.62c-6.399 0-11.586-5.187-11.586-11.585 0-6.4 5.187-11.587 11.586-11.587s11.586 5.188 11.586 11.587c-.007 6.395-5.19 11.578-11.586 11.586z"
      fill="#000" />
    <path
      d="M25.825 15.803a1.448 1.448 0 00-1.17-.596h-4.433l-1.376-4.22a1.448 1.448 0 00-2.752 0l-1.372 4.22h-4.437a1.448 1.448 0 00-.853 2.619l3.589 2.607-1.371 4.22a1.448 1.448 0 002.229 1.619l3.59-2.606 3.59 2.606a1.428 1.428 0 001.704 0 1.427 1.427 0 00.525-1.619l-1.37-4.22 3.588-2.607c.647-.47.79-1.377.319-2.023zM20.64 19.57a.724.724 0 00-.263.81l1.534 4.72-4.015-2.916a.724.724 0 00-.851 0L13.029 25.1l1.533-4.72a.724.724 0 00-.262-.81l-4.015-2.916h4.963a.724.724 0 00.688-.5l1.534-4.72 1.534 4.719c.096.298.374.5.688.5l4.963.001-4.015 2.916z"
      fill="#E10303" />
  </g>
  <defs>
    <clipPath id="prefix__clip0">
      <path fill="#fff" d="M0 0h34.94v42H0z" />
    </clipPath>
  </defs>
</svg>
