<svg width="61" height="61" fill="none" xmlns="http://www.w3.org/2000/svg">
  <path
    d="M60.969 26.438v-14.22a5.081 5.081 0 00-4.119-4.98c-.458-4.05-3.9-7.207-8.069-7.207-4.135 0-7.552 3.108-8.055 7.11h-4.203C36.02 3.139 32.604.03 28.469.03c-4.136 0-7.552 3.108-8.055 7.11H16.21C15.708 3.139 12.292.03 8.156.03 3.676.031.031 3.676.031 8.156s3.645 8.125 8.125 8.125c4.136 0 7.552-3.108 8.055-7.11h4.204c.503 4.002 3.92 7.11 8.055 7.11s7.552-3.108 8.055-7.11h4.203c.503 4.002 3.92 7.11 8.055 7.11 4.081 0 7.459-3.027 8.03-6.952a3.042 3.042 0 012.124 2.89v14.219a3.05 3.05 0 01-3.046 3.046H39.045l2.33-2.329-1.437-1.436-3.765 3.765H30.92l2.33-2.329-1.437-1.436-3.765 3.765h-5.252l2.328-2.329-1.436-1.436-3.765 3.765H5.11a5.084 5.084 0 00-5.078 5.078v14.22a5.081 5.081 0 004.119 4.98c.458 4.05 3.9 7.207 8.069 7.207 4.135 0 7.552-3.108 8.055-7.11h4.203c.503 4.002 3.92 7.11 8.055 7.11 4.136 0 7.553-3.108 8.055-7.11h4.204c.503 4.002 3.92 7.11 8.055 7.11 4.48 0 8.125-3.645 8.125-8.125s-3.645-8.125-8.125-8.125c-4.136 0-7.552 3.108-8.055 7.11h-4.204c-.503-4.002-3.92-7.11-8.055-7.11s-7.552 3.108-8.055 7.11h-4.203c-.503-4.002-3.92-7.11-8.055-7.11-4.081 0-7.459 3.027-8.03 6.952a3.041 3.041 0 01-2.127-2.89V34.563a3.05 3.05 0 013.047-3.047h14.814l3.765 3.765 1.436-1.437-2.328-2.328h5.252l3.765 3.765 1.436-1.437-2.329-2.328h5.253l3.765 3.765 1.436-1.437-2.329-2.328h16.846c2.8 0 5.078-2.278 5.078-5.078zM8.156 14.25a6.1 6.1 0 01-6.094-6.094 6.1 6.1 0 016.094-6.094 6.1 6.1 0 016.094 6.094 6.1 6.1 0 01-6.094 6.094zm20.313 0a6.1 6.1 0 01-6.094-6.094 6.1 6.1 0 016.094-6.094 6.1 6.1 0 016.093 6.094 6.1 6.1 0 01-6.093 6.094zm20.312 0a6.1 6.1 0 01-6.093-6.094 6.1 6.1 0 016.093-6.094 6.1 6.1 0 016.094 6.094 6.1 6.1 0 01-6.094 6.094zm4.063 32.5a6.1 6.1 0 016.093 6.094 6.1 6.1 0 01-6.093 6.093 6.1 6.1 0 01-6.094-6.093 6.1 6.1 0 016.094-6.094zm-20.313 0a6.1 6.1 0 016.094 6.094 6.1 6.1 0 01-6.094 6.093 6.1 6.1 0 01-6.093-6.093 6.1 6.1 0 016.093-6.094zm-20.312 0a6.1 6.1 0 016.094 6.094 6.1 6.1 0 01-6.094 6.093 6.1 6.1 0 01-6.094-6.093 6.1 6.1 0 016.094-6.094z"
    fill="#E10303" /></svg>
