<svg width="42" height="42" fill="none" xmlns="http://www.w3.org/2000/svg">
  <path
    d="M21 0a4.2 4.2 0 100 8.4A4.2 4.2 0 0021 0zm0 7a2.8 2.8 0 110-5.6A2.8 2.8 0 0121 7zM23.8 9.1h-.165l-.148.073a5.58 5.58 0 01-4.974 0l-.148-.073H18.2a3.504 3.504 0 00-3.5 3.5v4.2c0 1.16.94 2.1 2.1 2.1h8.4a2.1 2.1 0 002.1-2.1v-4.2a3.504 3.504 0 00-3.5-3.5zm2.1 7.7a.7.7 0 01-.7.7h-8.4a.7.7 0 01-.7-.7v-4.2a2.1 2.1 0 011.951-2.094 7.005 7.005 0 005.898 0A2.1 2.1 0 0125.9 12.6v4.2zM35.7 23.1a4.2 4.2 0 100 8.4 4.2 4.2 0 000-8.4zm0 7a2.8 2.8 0 110-5.6 2.8 2.8 0 010 5.6zM38.5 32.2h-.165l-.148.07a5.58 5.58 0 01-4.974 0l-.148-.07H32.9a3.504 3.504 0 00-3.5 3.5v4.2c0 1.16.94 2.1 2.1 2.1h8.4a2.1 2.1 0 002.1-2.1v-4.2a3.504 3.504 0 00-3.5-3.5zm2.1 7.7a.7.7 0 01-.7.7h-8.4a.7.7 0 01-.7-.7v-4.2a2.1 2.1 0 011.95-2.094 7.005 7.005 0 005.899 0 2.1 2.1 0 011.95 2.094v4.2zM6.3 23.1a4.2 4.2 0 100 8.4 4.2 4.2 0 000-8.4zm0 7a2.8 2.8 0 110-5.6 2.8 2.8 0 010 5.6zM9.1 32.2h-.165l-.148.07a5.58 5.58 0 01-4.974 0l-.148-.07H3.5A3.504 3.504 0 000 35.7v4.2C0 41.06.94 42 2.1 42h8.4a2.1 2.1 0 002.1-2.1v-4.2a3.504 3.504 0 00-3.5-3.5zm2.1 7.7a.7.7 0 01-.7.7H2.1a.7.7 0 01-.7-.7v-4.2a2.1 2.1 0 011.95-2.094 7.005 7.005 0 005.9 0A2.1 2.1 0 0111.2 35.7v4.2z"
    fill="#000" />
  <path
    d="M27.945 35.55v-.003a.7.7 0 00-.92-.37 15.527 15.527 0 01-9.983.688l.655-.193a.7.7 0 10-.393-1.344l-2.8.821c-.01 0-.019.012-.028.015a.696.696 0 00-.181.1.605.605 0 00-.07.045.677.677 0 00-.225.527c.017.095.04.188.07.28.005.01 0 .02.008.03l1.4 2.68a.7.7 0 001.242-.649l-.57-1.089a16.85 16.85 0 0011.423-.621.7.7 0 00.372-.918zM39.695 18.405a.7.7 0 00-.99 0l-.99.99a16.775 16.775 0 00-10.14-13.86.7.7 0 10-.55 1.289 15.377 15.377 0 019.26 12.37l-.79-.789a.7.7 0 00-.99.99l2.1 2.1a.7.7 0 00.99.001l.001-.001 2.1-2.1a.7.7 0 00-.001-.99zM15.38 6.061a.652.652 0 00-.018-.12c0-.007-.008-.011-.01-.018-.004-.007 0-.012 0-.018a.672.672 0 00-.067-.096.707.707 0 00-.08-.116.656.656 0 00-.136-.093.614.614 0 00-.078-.057l-2.8-1.279a.7.7 0 00-.581 1.273l1.45.663A16.774 16.774 0 004.2 21a.7.7 0 001.4 0 15.376 15.376 0 017.576-13.26l-.506 1.057a.7.7 0 001.26.606l1.4-2.921c0-.007 0-.015.006-.022a.672.672 0 00.038-.148.725.725 0 00.026-.116.701.701 0 00-.02-.135z"
    fill="#E10303" /></svg>
