<svg width="50" height="50" viewBox="0 0 50 50" fill="none" xmlns="http://www.w3.org/2000/svg">
<g clip-path="url(#clip0)">
<path d="M25 0C22.2385 0 20 2.23854 20 5C20 7.76146 22.2385 10 25 10C27.7603 9.99729 29.9973 7.76031 30 5C30 2.23854 27.7615 0 25 0ZM25 8.33333C23.1591 8.33333 21.6667 6.84094 21.6667 5C21.6667 3.15906 23.1591 1.66667 25 1.66667C26.8409 1.66667 28.3333 3.15906 28.3333 5C28.3333 6.84094 26.8409 8.33333 25 8.33333Z" fill="#E10303"/>
<path d="M28.3333 10.8333H28.1367L27.9608 10.9208C26.0961 11.8492 23.9039 11.8492 22.0392 10.9208L21.8633 10.8333H21.6667C19.3667 10.836 17.5027 12.7 17.5 15V20C17.5 21.3807 18.6193 22.5 20 22.5H30C31.3807 22.5 32.5 21.3807 32.5 20V15C32.4973 12.7 30.6333 10.836 28.3333 10.8333ZM30.8333 20C30.8333 20.4602 30.4602 20.8333 30 20.8333H20C19.5398 20.8333 19.1667 20.4602 19.1667 20V15C19.1669 13.6883 20.1807 12.5998 21.4892 12.5066C23.7157 13.54 26.2844 13.54 28.5108 12.5066C29.8192 12.5998 30.8331 13.6883 30.8333 15V20Z" fill="#E10303"/>
<path d="M42.5 27.5C39.7385 27.5 37.5 29.7385 37.5 32.5C37.5 35.2615 39.7385 37.5 42.5 37.5C45.2615 37.5 47.5 35.2615 47.5 32.5C47.4973 29.7397 45.2603 27.5027 42.5 27.5ZM42.5 35.8333C40.6591 35.8333 39.1667 34.3409 39.1667 32.5C39.1667 30.6591 40.6591 29.1667 42.5 29.1667C44.3409 29.1667 45.8333 30.6591 45.8333 32.5C45.8333 34.3409 44.3409 35.8333 42.5 35.8333Z" fill="#E10303"/>
<path d="M45.8335 38.3333H45.6368L45.461 38.4166C43.5963 39.345 41.404 39.345 39.5393 38.4166L39.3635 38.3333H39.1668C36.8668 38.336 35.0028 40.2 35.0001 42.5V47.5C35.0001 48.8807 36.1194 50 37.5001 50H47.5001C48.8809 50 50.0001 48.8807 50.0001 47.5V42.5C49.9974 40.2 48.1335 38.336 45.8335 38.3333ZM48.3335 47.5C48.3335 47.9602 47.9603 48.3333 47.5001 48.3333H37.5001C37.0399 48.3333 36.6668 47.9602 36.6668 47.5V42.5C36.667 41.1883 37.6809 40.0998 38.9893 40.0066C41.2158 41.04 43.7844 41.04 46.011 40.0066C47.3194 40.0998 48.3332 41.1883 48.3335 42.5V47.5Z" fill="#E10303"/>
<path d="M7.49988 27.5C4.73842 27.5 2.49988 29.7385 2.49988 32.5C2.49988 35.2615 4.73842 37.5 7.49988 37.5C10.2613 37.5 12.4999 35.2615 12.4999 32.5C12.4972 29.7397 10.2602 27.5027 7.49988 27.5ZM7.49988 35.8333C5.65894 35.8333 4.16654 34.3409 4.16654 32.5C4.16654 30.6591 5.65894 29.1667 7.49988 29.1667C9.34082 29.1667 10.8332 30.6591 10.8332 32.5C10.8332 34.3409 9.34082 35.8333 7.49988 35.8333Z" fill="#E10303"/>
<path d="M10.8333 38.3333H10.6367L10.4608 38.4166C8.59615 39.345 6.40385 39.345 4.53917 38.4166L4.36333 38.3333H4.16667C1.86667 38.336 0.00270833 40.2 0 42.5V47.5C0 48.8807 1.11927 50 2.5 50H12.5C13.8807 50 15 48.8807 15 47.5V42.5C14.9973 40.2 13.1333 38.336 10.8333 38.3333ZM13.3333 47.5C13.3333 47.9602 12.9602 48.3333 12.5 48.3333H2.5C2.03979 48.3333 1.66667 47.9602 1.66667 47.5V42.5C1.66688 41.1883 2.68073 40.0998 3.98917 40.0066C6.21573 41.04 8.78427 41.04 11.0108 40.0066C12.3193 40.0998 13.3331 41.1883 13.3333 42.5V47.5Z" fill="#E10303"/>
<path d="M33.268 42.3204C33.2676 42.3195 33.2672 42.3186 33.2667 42.3175C33.0863 41.8941 32.5969 41.6971 32.1735 41.8775C28.4105 43.4546 24.2313 43.7423 20.2877 42.6959L21.0677 42.4667C21.5096 42.3373 21.7629 41.8744 21.6335 41.4325C21.5041 40.9907 21.0412 40.7373 20.5994 40.8667L17.266 41.8442C17.2535 41.8442 17.2444 41.8584 17.2327 41.8625C17.1555 41.8913 17.083 41.9315 17.0177 41.9817C16.9887 41.9973 16.9609 42.0148 16.9344 42.0342C16.8464 42.1126 16.7768 42.2093 16.7302 42.3175C16.685 42.4265 16.6634 42.5438 16.6669 42.6617C16.6872 42.7745 16.715 42.8859 16.7502 42.995C16.7552 43.0067 16.7502 43.02 16.7594 43.0317L18.426 46.2209C18.6392 46.6291 19.1428 46.7873 19.551 46.5742C19.9593 46.3611 20.1175 45.8574 19.9044 45.4492L19.226 44.1525C23.7066 45.4994 28.5172 45.2376 32.8252 43.4125C33.2489 43.2333 33.4473 42.7443 33.268 42.3204Z" fill="#E10303"/>
<path d="M47.2558 21.9108C46.9304 21.5855 46.4029 21.5855 46.0775 21.9108L44.8983 23.09C44.2083 15.791 39.5742 9.45707 32.8266 6.58998C32.4032 6.40957 31.9137 6.60655 31.7333 7.02998C31.5529 7.45342 31.7499 7.9429 32.1733 8.12332C38.2264 10.6959 42.4341 16.318 43.1958 22.8508L42.2558 21.9108C41.9248 21.591 41.3973 21.6002 41.0775 21.9312C40.7656 22.2542 40.7656 22.7661 41.0775 23.0892L43.5775 25.5892C43.9025 25.915 44.4302 25.9157 44.756 25.5906C44.7565 25.5901 44.757 25.5896 44.7575 25.5892L47.2575 23.0892C47.5824 22.7633 47.5816 22.2358 47.2558 21.9108Z" fill="#E10303"/>
<path d="M18.3092 7.2158C18.3065 7.16716 18.2993 7.11893 18.2875 7.07164C18.2875 7.06414 18.2783 7.05914 18.275 7.0508C18.2717 7.04247 18.275 7.03664 18.275 7.02997C18.2523 6.98945 18.226 6.95091 18.1967 6.91497C18.1697 6.86612 18.1378 6.82007 18.1017 6.77747C18.0524 6.73382 17.9978 6.69664 17.9392 6.66664C17.9099 6.64174 17.8787 6.61914 17.8458 6.59914L14.5125 5.07664C14.0868 4.90184 13.5999 5.10528 13.4251 5.53101C13.2598 5.93361 13.4322 6.3957 13.8208 6.59164L15.5467 7.3808C9.04948 10.858 4.99532 17.6308 5 25C5 25.4602 5.37313 25.8333 5.83334 25.8333C6.29355 25.8333 6.66667 25.4602 6.66667 25C6.6625 18.5111 10.0939 12.505 15.6858 9.2133L15.0833 10.4725C14.8847 10.8867 15.0588 11.3836 15.4725 11.5833C15.5849 11.6382 15.7082 11.6667 15.8333 11.6666C16.1533 11.6662 16.4448 11.4826 16.5833 11.1941L18.25 7.71664C18.25 7.7083 18.25 7.69914 18.2567 7.6908C18.2783 7.63382 18.2934 7.57455 18.3017 7.51414C18.3159 7.46924 18.3266 7.4233 18.3333 7.37664C18.3305 7.32237 18.3225 7.26851 18.3092 7.2158Z" fill="#E10303"/>
</g>
<defs>
<clipPath id="clip0">
<rect width="50" height="50" fill="white"/>
</clipPath>
</defs>
</svg>
