<svg width="50" height="50" viewBox="0 0 50 50" fill="none" xmlns="http://www.w3.org/2000/svg">
<g clip-path="url(#clip0)">
<path d="M8.79402 38.6669C8.09402 38.6669 7.42111 38.8416 6.82411 39.1697C3.67928 35.1383 1.95312 30.1304 1.95312 25C1.95312 12.2917 12.2917 1.95312 25 1.95312C26.545 1.95312 28.0891 2.10686 29.5898 2.41013C30.1178 2.51694 30.6335 2.17514 30.7404 1.64642C30.8472 1.11771 30.5054 0.602722 29.9767 0.495529C28.3489 0.166702 26.6747 0 25 0C18.3224 0 12.0441 2.60048 7.32231 7.32231C2.60048 12.0441 0 18.3224 0 25C0 30.6171 1.90735 36.0989 5.37987 40.4934C4.93279 41.1613 4.69246 41.9464 4.69246 42.7685C4.69246 43.8641 5.11932 44.894 5.89409 45.6684C6.66847 46.4432 7.69844 46.87 8.79402 46.87C9.8896 46.87 10.9196 46.4432 11.6943 45.6684C12.4691 44.894 12.8956 43.8637 12.8956 42.7681C12.8956 41.6729 12.4691 40.6425 11.6943 39.8682C10.9196 39.0934 9.8896 38.6669 8.79402 38.6669ZM10.313 44.2875C9.90753 44.6934 9.36775 44.9169 8.79402 44.9169C8.22029 44.9169 7.68089 44.6934 7.27501 44.2875C6.86913 43.8816 6.64558 43.3422 6.64558 42.7685C6.64558 42.1944 6.86913 41.655 7.27501 41.2491C7.68051 40.8432 8.22029 40.62 8.79402 40.62C9.36775 40.62 9.90715 40.8436 10.313 41.2491C10.7189 41.655 10.9425 42.1944 10.9425 42.7685C10.9425 43.3422 10.7189 43.8816 10.313 44.2875Z" fill="#E10303"/>
<path d="M44.6195 9.50545C45.6811 7.91281 45.5106 5.73538 44.1064 4.33119C43.3316 3.55681 42.3017 3.12994 41.2061 3.12994C40.1105 3.12994 39.0805 3.55681 38.3058 4.33119C37.531 5.10596 37.1045 6.13593 37.1045 7.23151C37.1045 8.32709 37.531 9.35706 38.3058 10.1318C39.0805 10.9066 40.1105 11.3331 41.2061 11.3331C41.9061 11.3331 42.579 11.1584 43.176 10.8303C46.3208 14.862 48.047 19.8696 48.047 25C48.047 37.7083 37.7084 48.0469 25.0001 48.0469C23.4704 48.0469 21.9407 47.8962 20.4541 47.5986C19.9254 47.493 19.4108 47.8359 19.3048 48.3646C19.1991 48.8937 19.542 49.4079 20.0708 49.514C21.6832 49.8363 23.3419 50 25.0001 50C31.6777 50 37.956 47.3995 42.6778 42.6777C47.3996 37.9558 50.0001 31.6776 50.0001 25C50.0001 19.3825 48.0924 13.9004 44.6195 9.50545ZM39.6871 8.7509C39.2812 8.34502 39.0576 7.80562 39.0576 7.23151C39.0576 6.65778 39.2812 6.11838 39.6871 5.71249C40.0926 5.30661 40.6324 5.08307 41.2061 5.08307C41.7798 5.08307 42.3196 5.30661 42.7255 5.71249C43.5628 6.5502 43.5628 7.91319 42.7255 8.7509C42.3196 9.1564 41.7798 9.37994 41.2061 9.37994C40.632 9.37994 40.0926 9.1564 39.6871 8.7509Z" fill="#E10303"/>
<path d="M33.9921 3.69341C34.2492 3.69341 34.5009 3.58888 34.6825 3.4073C34.8641 3.22458 34.9686 2.97281 34.9686 2.7157C34.9686 2.46011 34.8645 2.20796 34.6825 2.02524C34.5009 1.84366 34.2492 1.73914 33.9921 1.73914C33.7342 1.73914 33.4836 1.84366 33.302 2.02524C33.12 2.20796 33.0155 2.45897 33.0155 2.7157C33.0155 2.97357 33.12 3.22458 33.302 3.4073C33.4836 3.58888 33.7342 3.69341 33.9921 3.69341Z" fill="#E10303"/>
<path d="M16.0507 46.3242C15.7939 46.3242 15.5418 46.4287 15.3602 46.6103C15.1786 46.7918 15.0741 47.044 15.0741 47.3007C15.0741 47.5586 15.1786 47.8096 15.3602 47.9912C15.5418 48.1728 15.7939 48.2773 16.0507 48.2773C16.3074 48.2773 16.5595 48.1728 16.7411 47.9912C16.9227 47.8096 17.0272 47.5574 17.0272 47.3007C17.0272 47.044 16.9227 46.7918 16.7411 46.6103C16.5595 46.4287 16.3074 46.3242 16.0507 46.3242Z" fill="#E10303"/>
<path d="M25.8145 38H23.8223V20.0371H25.8145V38ZM23.4736 14.8408C23.4736 14.4645 23.5954 14.1491 23.8389 13.8945C24.0824 13.6289 24.4144 13.4961 24.835 13.4961C25.2555 13.4961 25.5876 13.6289 25.8311 13.8945C26.0856 14.1491 26.2129 14.4645 26.2129 14.8408C26.2129 15.2171 26.0856 15.5326 25.8311 15.7871C25.5876 16.0417 25.2555 16.1689 24.835 16.1689C24.4144 16.1689 24.0824 16.0417 23.8389 15.7871C23.5954 15.5326 23.4736 15.2171 23.4736 14.8408Z" fill="#E10303"/>
</g>
<defs>
<clipPath id="clip0">
<rect width="50" height="50" fill="white"/>
</clipPath>
</defs>
</svg>
