<svg width="49" height="65" viewBox="0 0 49 65" fill="none" xmlns="http://www.w3.org/2000/svg">
<path d="M36.3554 0.5L48.25 12.3946V64.5H0.5V0.5H36.3554Z" fill="white" stroke="#E10303"/>
<path d="M48.75 12.1875H36.5625V0" fill="#E10303"/>
<mask id="path-3-inside-1" fill="white">
<path d="M30.3995 35.6992V52.881H29.2145L24.4747 48.1412L19.7349 52.881H18.55V35.6992"/>
</mask>
<path d="M30.3995 52.881V53.881H31.3995V52.881H30.3995ZM29.2145 52.881L28.5074 53.5881L28.8003 53.881H29.2145V52.881ZM24.4747 48.1412L25.1818 47.4341L24.4747 46.727L23.7676 47.4341L24.4747 48.1412ZM19.7349 52.881V53.881H20.1491L20.442 53.5881L19.7349 52.881ZM18.55 52.881H17.55V53.881H18.55V52.881ZM29.3995 35.6992V52.881H31.3995V35.6992H29.3995ZM30.3995 51.881H29.2145V53.881H30.3995V51.881ZM29.9216 52.1739L25.1818 47.4341L23.7676 48.8483L28.5074 53.5881L29.9216 52.1739ZM23.7676 47.4341L19.0278 52.1739L20.442 53.5881L25.1818 48.8483L23.7676 47.4341ZM19.7349 51.881H18.55V53.881H19.7349V51.881ZM19.55 52.881V35.6992H17.55V52.881H19.55Z" fill="#E10303" mask="url(#path-3-inside-1)"/>
<path d="M24.4745 38.0691C29.71 38.0691 33.9541 33.8249 33.9541 28.5895C33.9541 23.354 29.71 19.1099 24.4745 19.1099C19.2391 19.1099 14.9949 23.354 14.9949 28.5895C14.9949 33.8249 19.2391 38.0691 24.4745 38.0691Z" fill="#E10303"/>
<path d="M24.4998 36.9961C29.1942 36.9961 32.9998 33.1905 32.9998 28.4961C32.9998 23.8017 29.1942 19.9961 24.4998 19.9961C19.8054 19.9961 15.9998 23.8017 15.9998 28.4961C15.9998 33.1905 19.8054 36.9961 24.4998 36.9961Z" fill="white"/>
</svg>
