<svg width="49" height="65" fill="none" xmlns="http://www.w3.org/2000/svg">
  <path d="M36.355.5L48.25 12.395V64.5H.5V.5h35.855z" fill="#fff" stroke="#E10303" />
  <path d="M48.75 12.188H36.562V0" fill="#E10303" />
  <mask id="prefix__a" fill="#fff">
    <path d="M30.4 35.7V52.88h-1.185l-4.74-4.74-4.74 4.74H18.55V35.699" />
  </mask>
  <path
    d="M30.4 52.881v1h1v-1h-1zm-1.185 0l-.708.707.293.293h.415v-1zm-4.74-4.74l.707-.707-.707-.707-.707.707.707.707zm-4.74 4.74v1h.414l.293-.293-.707-.707zm-1.185 0h-1v1h1v-1zM29.4 35.699v17.182h2V35.699h-2zm1 16.182h-1.185v2h1.184v-2zm-.478.293l-4.74-4.74-1.414 1.414 4.74 4.74 1.414-1.414zm-6.154-4.74l-4.74 4.74 1.414 1.414 4.74-4.74-1.414-1.414zm-4.033 4.447H18.55v2h1.185v-2zm-.185 1V35.699h-2v17.182h2z"
    fill="#E10303" mask="url(#prefix__a)" />
  <path d="M24.474 38.07a9.48 9.48 0 100-18.96 9.48 9.48 0 000 18.96z" fill="#E10303" />
  <path d="M24.5 36.996a8.5 8.5 0 100-17 8.5 8.5 0 000 17z" fill="#fff" />
</svg>
