<svg width="50" height="50" viewBox="0 0 50 50" fill="none" xmlns="http://www.w3.org/2000/svg">
<g clip-path="url(#clip0)">
<path d="M19.1667 35H5.83333V32.0833C5.83333 30.4725 4.5275 29.1666 2.91667 29.1666C1.30583 29.1666 0 30.4725 0 32.0833V49.1666C0 49.6268 0.373125 50 0.833333 50H12.5C13.8747 50.006 14.9941 48.8965 15.0002 47.5218C15.003 46.8974 14.7709 46.2946 14.35 45.8333C15.2167 44.8912 15.2167 43.442 14.35 42.5C14.977 41.8287 15.1706 40.8607 14.85 40H19.1667C20.5474 40 21.6667 38.8807 21.6667 37.5C21.6667 36.1192 20.5474 35 19.1667 35ZM12.5 48.3333H9.16667C8.70646 48.3333 8.33333 47.9602 8.33333 47.5C8.33333 47.0397 8.70646 46.6666 9.16667 46.6666H12.5C12.9602 46.6666 13.3333 47.0397 13.3333 47.5C13.3333 47.9602 12.9603 48.3333 12.5 48.3333ZM12.5 45H9.16667C8.70646 45 8.33333 44.6268 8.33333 44.1666C8.33333 43.7064 8.70646 43.3333 9.16667 43.3333H12.5C12.9602 43.3333 13.3333 43.7064 13.3333 44.1666C13.3333 44.6268 12.9603 45 12.5 45ZM12.5 41.6666H9.16667C8.70646 41.6666 8.33333 41.2935 8.33333 40.8333C8.33333 40.3731 8.70646 40 9.16667 40H12.5C12.9602 40 13.3333 40.3731 13.3333 40.8333C13.3333 41.2935 12.9603 41.6666 12.5 41.6666ZM19.1667 38.3333H9.16667C7.79198 38.3272 6.6726 39.4367 6.66646 40.8114C6.66365 41.4359 6.89573 42.0386 7.31667 42.5C6.45 43.442 6.45 44.8912 7.31667 45.8333C6.68969 46.5045 6.49604 47.4726 6.81667 48.3333H1.66667V32.0833C1.66667 31.393 2.22635 30.8333 2.91667 30.8333C3.60698 30.8333 4.16667 31.393 4.16667 32.0833V35.8333C4.16667 36.2935 4.53979 36.6666 5 36.6666H19.1667C19.6269 36.6666 20 37.0397 20 37.5C20 37.9602 19.627 38.3333 19.1667 38.3333Z" fill="#E10303"/>
<path d="M49.1666 2.45582e-05H37.4999C36.1252 -0.00601711 35.0059 1.10346 34.9997 2.47815C34.9969 3.10263 35.229 3.70534 35.6499 4.16669C34.7832 5.10877 34.7832 6.55794 35.6499 7.50002C35.0229 8.17128 34.8293 9.1393 35.1499 10H30.8333C29.4525 10 28.3333 11.1193 28.3333 12.5C28.3333 13.8808 29.4525 15 30.8333 15H44.1666V17.9167C44.1666 19.5275 45.4724 20.8334 47.0832 20.8334C48.6941 20.8334 49.9999 19.5275 49.9999 17.9167V0.833358C49.9999 0.37315 49.6269 2.45582e-05 49.1666 2.45582e-05ZM37.4999 1.66669H40.8332C41.2935 1.66669 41.6666 2.03982 41.6666 2.50002C41.6666 2.96023 41.2935 3.33336 40.8332 3.33336H37.4999C37.0397 3.33336 36.6666 2.96023 36.6666 2.50002C36.6666 2.03982 37.0397 1.66669 37.4999 1.66669ZM37.4999 5.00002H40.8332C41.2935 5.00002 41.6666 5.37315 41.6666 5.83336C41.6666 6.29357 41.2935 6.66669 40.8332 6.66669H37.4999C37.0397 6.66669 36.6666 6.29357 36.6666 5.83336C36.6666 5.37315 37.0397 5.00002 37.4999 5.00002ZM37.4999 8.33336H40.8332C41.2935 8.33336 41.6666 8.70648 41.6666 9.16669C41.6666 9.6269 41.2935 10 40.8332 10H37.4999C37.0397 10 36.6666 9.6269 36.6666 9.16669C36.6666 8.70648 37.0397 8.33336 37.4999 8.33336ZM48.3332 17.9167C48.3332 18.607 47.7736 19.1667 47.0832 19.1667C46.3929 19.1667 45.8332 18.607 45.8332 17.9167V14.1667C45.8332 13.7065 45.4601 13.3334 44.9999 13.3334H30.8333C30.373 13.3334 29.9999 12.9602 29.9999 12.5C29.9999 12.0398 30.373 11.6667 30.8333 11.6667H40.8332C42.2079 11.6727 43.3273 10.5633 43.3335 9.18857C43.3363 8.56409 43.1042 7.96138 42.6832 7.50002C43.5499 6.55794 43.5499 5.10877 42.6832 4.16669C43.3102 3.49544 43.5039 2.52742 43.1832 1.66669H48.3332V17.9167Z" fill="#E10303"/>
<path d="M25 20.8334C22.6989 20.8334 20.8334 22.6989 20.8334 25C20.8361 27.3 22.7 29.164 25 29.1667C27.3012 29.1667 29.1667 27.3012 29.1667 25C29.1667 22.6989 27.3013 20.8334 25 20.8334ZM25 27.5C23.6193 27.5 22.5 26.3808 22.5 25C22.5 23.6193 23.6193 22.5 25 22.5C26.3808 22.5 27.5 23.6193 27.5 25C27.5 26.3808 26.3808 27.5 25 27.5Z" fill="#E10303"/>
<path d="M43.9491 24.4425L43.6991 24.1616C34.405 13.8343 18.4987 12.9968 8.1714 22.291C7.51546 22.8813 6.89109 23.5057 6.30078 24.1616L6.05078 24.4425C5.76546 24.7593 5.76546 25.2405 6.05078 25.5575L6.30078 25.8383C15.5949 36.1656 31.5012 37.0031 41.8285 27.7089C42.4844 27.1186 43.1088 26.4942 43.6991 25.8383L43.9491 25.5575C44.2344 25.2406 44.2344 24.7594 43.9491 24.4425ZM7.79161 25C10.743 21.8312 14.5116 19.5384 18.6824 18.3741C15.0236 21.8431 14.8695 27.6212 18.3385 31.2802C18.45 31.3979 18.5647 31.5126 18.6824 31.6241C14.5118 30.4603 10.7432 28.1681 7.79161 25ZM24.9999 32.5C20.8579 32.5 17.4999 29.142 17.4999 25C17.4999 20.8578 20.8578 17.5 24.9999 17.5C29.1399 17.505 32.4949 20.86 32.4999 25C32.4999 29.1421 29.1421 32.5 24.9999 32.5ZM31.3174 31.6258C34.9763 28.1569 35.1304 22.3787 31.6614 18.7198C31.5498 18.602 31.4352 18.4874 31.3174 18.3758C35.4882 19.5396 39.2567 21.8318 42.2083 25C39.2569 28.1687 35.4883 30.4615 31.3174 31.6258Z" fill="#E10303"/>
</g>
<defs>
<clipPath id="clip0">
<rect width="50" height="50" fill="white"/>
</clipPath>
</defs>
</svg>
