<svg width="42" height="42" fill="none" xmlns="http://www.w3.org/2000/svg">
  <g clip-path="url(#prefix__clip0)">
    <path
      d="M16.1 29.4H4.9v-2.45a2.45 2.45 0 10-4.9 0V41.3a.7.7 0 00.7.7h9.8a2.091 2.091 0 001.554-3.5 2.068 2.068 0 000-2.8c.527-.564.69-1.377.42-2.1H16.1a2.1 2.1 0 100-4.2zm-5.6 11.2H7.7a.7.7 0 010-1.4h2.8a.7.7 0 110 1.4zm0-2.8H7.7a.7.7 0 010-1.4h2.8a.7.7 0 110 1.4zm0-2.8H7.7a.7.7 0 010-1.4h2.8a.7.7 0 110 1.4zm5.6-2.8H7.7a2.091 2.091 0 00-1.554 3.5 2.068 2.068 0 000 2.8 2.036 2.036 0 00-.42 2.1H1.4V26.95a1.05 1.05 0 012.1 0v3.15a.7.7 0 00.7.7h11.9a.7.7 0 110 1.4zM41.3 0h-9.8a2.091 2.091 0 00-1.554 3.5 2.068 2.068 0 000 2.8 2.036 2.036 0 00-.42 2.1H25.9a2.1 2.1 0 100 4.2h11.2v2.45a2.45 2.45 0 104.9 0V.7a.7.7 0 00-.7-.7zm-9.8 1.4h2.8a.7.7 0 010 1.4h-2.8a.7.7 0 010-1.4zm0 2.8h2.8a.7.7 0 010 1.4h-2.8a.7.7 0 010-1.4zm0 2.8h2.8a.7.7 0 010 1.4h-2.8a.7.7 0 010-1.4zm9.1 8.05a1.05 1.05 0 11-2.1 0V11.9a.7.7 0 00-.7-.7H25.9a.7.7 0 110-1.4h8.4a2.091 2.091 0 001.554-3.5 2.068 2.068 0 000-2.8c.526-.564.69-1.377.42-2.1H40.6v13.65z"
      fill="#000" />
    <path d="M21 17.5a3.5 3.5 0 100 7 3.5 3.5 0 000-7zm0 5.6a2.1 2.1 0 110-4.2 2.1 2.1 0 010 4.2z" fill="#E10303" />
    <path
      d="M36.917 20.532l-.21-.236C28.9 11.62 15.54 10.917 6.864 18.724a21.136 21.136 0 00-1.571 1.572l-.21.236a.7.7 0 000 .936l.21.236c7.807 8.675 21.168 9.379 29.843 1.572.55-.496 1.075-1.02 1.571-1.572l.21-.236a.7.7 0 000-.936zM6.545 21a19.762 19.762 0 019.148-5.566 7.668 7.668 0 000 11.13A19.765 19.765 0 016.545 21zM21 27.3a6.3 6.3 0 010-12.6 6.308 6.308 0 016.3 6.3 6.3 6.3 0 01-6.3 6.3zm5.307-.734a7.669 7.669 0 000-11.13A19.762 19.762 0 0135.455 21a19.764 19.764 0 01-9.148 5.566z"
      fill="#E10303" />
  </g>
  <defs>
    <clipPath id="prefix__clip0">
      <path fill="#fff" d="M0 0h42v42H0z" />
    </clipPath>
  </defs>
</svg>
