<svg width="65" height="65" fill="none" xmlns="http://www.w3.org/2000/svg">
  <g clip-path="url(#prefix__clip0)" fill="#E10303">
    <path
      d="M32.756.175l1.078 2.298c.04.084.12.144.213.16l2.434.37a.283.283 0 01.159.477l-1.778 1.823a.288.288 0 00-.077.243l.417 2.559a.283.283 0 01-.415.292l-2.15-1.188a.286.286 0 00-.274 0l-2.149 1.188a.283.283 0 01-.415-.292l.416-2.56a.288.288 0 00-.077-.242L28.36 3.476a.283.283 0 01.16-.478l2.433-.37a.288.288 0 00.214-.16L32.245.17a.282.282 0 01.51.005zM32.756 56.733l1.078 2.298c.04.085.12.144.213.16l2.434.37a.283.283 0 01.16.478l-1.78 1.822a.288.288 0 00-.076.243l.417 2.559a.283.283 0 01-.415.293l-2.149-1.189a.285.285 0 00-.273 0l-2.15 1.189a.283.283 0 01-.415-.293l.418-2.559a.288.288 0 00-.077-.243l-1.78-1.827a.283.283 0 01.159-.477l2.433-.371a.288.288 0 00.214-.16l1.078-2.297a.282.282 0 01.51.005zM18.981 4l1.076 2.297c.04.085.12.145.214.16l2.433.37a.283.283 0 01.16.478l-1.776 1.827a.281.281 0 00-.077.243l.417 2.559a.282.282 0 01-.416.293l-2.15-1.19a.285.285 0 00-.273 0l-2.15 1.19a.283.283 0 01-.416-.293l.415-2.564a.284.284 0 00-.076-.243l-1.777-1.822a.283.283 0 01.16-.477l2.434-.371a.284.284 0 00.212-.16L18.474 4a.283.283 0 01.507 0zM47.26 52.98l1.076 2.303c.041.085.121.145.214.16l2.433.372a.282.282 0 01.16.476l-1.776 1.82a.278.278 0 00-.077.242l.417 2.559a.283.283 0 01-.416.293l-2.15-1.188a.28.28 0 00-.273 0l-2.149 1.188a.283.283 0 01-.416-.293l.417-2.559a.28.28 0 00-.076-.242l-1.779-1.823a.283.283 0 01.16-.476l2.434-.372a.284.284 0 00.212-.16l1.078-2.297a.284.284 0 01.512-.003zM8.715 13.77l1.078 2.297c.041.085.121.144.214.16l2.433.37a.283.283 0 01.16.478l-1.779 1.822a.288.288 0 00-.076.243l.417 2.559a.283.283 0 01-.415.293l-2.15-1.19a.286.286 0 00-.273 0l-2.15 1.19a.283.283 0 01-.414-.293l.417-2.559a.288.288 0 00-.077-.243l-1.78-1.825a.283.283 0 01.16-.475l2.432-.37a.288.288 0 00.214-.16l1.078-2.298a.282.282 0 01.511 0zM57.697 42.049l1.078 2.297c.04.085.12.145.212.16l2.434.37a.283.283 0 01.16.478l-1.78 1.822a.284.284 0 00-.075.243l.418 2.56a.282.282 0 01-.417.292l-2.149-1.189a.286.286 0 00-.274 0l-2.149 1.189a.283.283 0 01-.416-.293l.417-2.559a.282.282 0 00-.077-.243L53.3 45.352a.283.283 0 01.16-.476l2.433-.37a.286.286 0 00.213-.16l1.078-2.297a.283.283 0 01.513 0zM4.476 28.454l1.078 2.298c.041.085.121.144.214.16l2.433.37a.283.283 0 01.16.477l-1.778 1.823a.288.288 0 00-.077.243l.417 2.559a.283.283 0 01-.415.293l-2.15-1.19a.286.286 0 00-.274 0l-2.15 1.19a.283.283 0 01-.414-.293l.416-2.56a.288.288 0 00-.077-.242L.081 31.755a.283.283 0 01.16-.477l2.432-.371a.288.288 0 00.214-.16l1.078-2.297a.282.282 0 01.511.004zM61.035 28.454l1.078 2.298c.04.085.12.144.214.16l2.433.37a.283.283 0 01.16.477l-1.779 1.823a.288.288 0 00-.077.243l.418 2.559a.283.283 0 01-.415.293l-2.15-1.19a.286.286 0 00-.273 0l-2.15 1.19a.283.283 0 01-.414-.293l.417-2.559a.288.288 0 00-.077-.243l-1.78-1.827a.283.283 0 01.16-.477l2.432-.371a.288.288 0 00.214-.16l1.078-2.297a.282.282 0 01.511.004zM9.213 41.815l1.079 2.297c.04.085.12.145.213.16l2.433.37a.283.283 0 01.16.478l-1.778 1.823a.278.278 0 00-.077.242l.417 2.559a.283.283 0 01-.416.293l-2.15-1.188a.28.28 0 00-.273 0l-2.15 1.188a.283.283 0 01-.414-.297l.416-2.558a.28.28 0 00-.076-.242l-1.78-1.82a.283.283 0 01.16-.478l2.433-.37a.284.284 0 00.213-.16l1.078-2.297a.284.284 0 01.512 0zM58.194 13.535l1.078 2.298c.041.085.121.144.214.16l2.433.37a.283.283 0 01.16.477L60.3 18.665a.285.285 0 00-.077.242l.417 2.559a.283.283 0 01-.415.293l-2.15-1.188a.28.28 0 00-.273 0l-2.149 1.188a.283.283 0 01-.417-.297l.417-2.558a.282.282 0 00-.077-.242L53.8 16.836a.283.283 0 01.16-.477l2.433-.371a.286.286 0 00.213-.16l1.078-2.297a.283.283 0 01.511.003zM18.482 51.582l1.078 2.298c.04.085.12.144.214.16l2.433.37a.283.283 0 01.16.477l-1.779 1.823a.289.289 0 00-.076.243l.417 2.559a.283.283 0 01-.415.292l-2.15-1.188a.286.286 0 00-.273 0l-2.151 1.192a.283.283 0 01-.415-.293l.417-2.559a.288.288 0 00-.077-.243l-1.778-1.826a.283.283 0 01.16-.477l2.432-.371a.288.288 0 00.214-.16l1.078-2.297a.283.283 0 01.511 0zM46.762 2.601L47.84 4.9c.04.085.12.145.213.16l2.434.37a.283.283 0 01.16.478l-1.78 1.822a.288.288 0 00-.076.243l.417 2.559a.283.283 0 01-.415.293L46.64 9.635a.286.286 0 00-.273 0l-2.147 1.193a.283.283 0 01-.415-.293l.417-2.558a.289.289 0 00-.077-.244l-1.778-1.826a.283.283 0 01.16-.478l2.433-.37a.288.288 0 00.213-.16l1.079-2.297a.282.282 0 01.51 0zM20.719 37.508c-.386.552-.925.966-1.617 1.242-.688.27-1.49.406-2.407.406-.927 0-1.75-.216-2.468-.648-.72-.438-1.277-1.058-1.672-1.86-.39-.802-.591-1.731-.602-2.789v-.992c0-1.713.399-3.041 1.195-3.984.803-.943 1.928-1.414 3.375-1.414 1.188 0 2.144.304 2.868.914.724.604 1.166 1.463 1.328 2.578h-1.5c-.282-1.505-1.177-2.258-2.688-2.258-1.005 0-1.768.354-2.289 1.063-.515.703-.776 1.724-.781 3.062v.93c0 1.276.292 2.291.875 3.047.583.75 1.372 1.125 2.367 1.125.563 0 1.055-.063 1.477-.188.422-.125.77-.336 1.047-.633v-2.554h-2.633v-1.22h4.125v4.173zM23.227 39V27.625h3.21c.99 0 1.865.219 2.625.656a4.414 4.414 0 011.758 1.867c.417.808.628 1.735.633 2.782v.726c0 1.073-.208 2.013-.625 2.82a4.338 4.338 0 01-1.773 1.86c-.766.432-1.66.654-2.68.664h-3.148zm1.5-10.14v8.913h1.578c1.156 0 2.054-.359 2.695-1.078.646-.718.969-1.742.969-3.07v-.664c0-1.292-.305-2.294-.914-3.008-.604-.719-1.464-1.083-2.578-1.094h-1.75zm10.5 5.687V39h-1.5V27.625h4.195c1.245 0 2.219.318 2.922.953.708.636 1.062 1.477 1.062 2.524 0 1.104-.346 1.955-1.039 2.554-.687.594-1.674.89-2.96.89h-2.68zm0-1.227h2.695c.802 0 1.417-.187 1.844-.562.427-.38.64-.927.64-1.64 0-.678-.213-1.22-.64-1.626-.427-.406-1.013-.617-1.758-.633h-2.781v4.461zm12.765 1.078H45.32V39h-1.508V27.625h3.766c1.281 0 2.266.292 2.953.875.693.583 1.04 1.432 1.04 2.547 0 .708-.193 1.325-.579 1.851-.38.526-.911.92-1.594 1.18l2.672 4.828V39h-1.61l-2.468-4.602zm-2.672-1.226h2.305c.745 0 1.336-.193 1.773-.578.443-.386.664-.901.664-1.547 0-.703-.21-1.242-.632-1.617-.417-.375-1.021-.565-1.813-.57H45.32v4.312z" />
  </g>
  <defs>
    <clipPath id="prefix__clip0">
      <path fill="#fff" d="M0 0h65v65H0z" />
    </clipPath>
  </defs>
</svg>
