<svg width="67" height="67" fill="none" xmlns="http://www.w3.org/2000/svg">
  <path
    d="M50.183 23.238a5.827 5.827 0 00-.564-1.037h3.305c3.22 0 5.84-2.62 5.84-5.84 0-3.22-2.62-5.84-5.84-5.84H42.757a5.805 5.805 0 001.026-3.3c0-3.22-2.62-5.84-5.84-5.84H6.84C3.62 1.38 1 4 1 7.22c0 3.22 2.62 5.84 5.84 5.84h10.166a5.806 5.806 0 00-1.026 3.3c0 1.224.38 2.361 1.026 3.301h-3.31c-3.22 0-5.84 2.62-5.84 5.84 0 1.85.865 3.5 2.21 4.57a5.83 5.83 0 000 9.14 5.83 5.83 0 000 9.141 5.83 5.83 0 00-2.21 4.57c0 3.22 2.62 5.84 5.84 5.84h14.96c3.942 4.216 9.55 6.856 15.762 6.856C56.318 65.62 66 55.938 66 44.037c0-9.904-6.707-18.27-15.817-20.799zm2.74-10.178c1.82 0 3.301 1.481 3.301 3.301s-1.48 3.301-3.3 3.301H21.82c-1.82 0-3.3-1.48-3.3-3.3 0-1.82 1.48-3.301 3.3-3.301h31.104zM6.84 10.521c-1.82 0-3.3-1.48-3.3-3.3 0-1.82 1.48-3.301 3.3-3.301h31.103c1.82 0 3.301 1.48 3.301 3.3 0 1.82-1.48 3.301-3.3 3.301H6.84zm6.855 11.68H44.8a3.3 3.3 0 011.44.332c-.6-.05-1.207-.078-1.821-.078-5.96 0-11.363 2.429-15.272 6.348h-15.45c-1.82 0-3.301-1.481-3.301-3.301s1.48-3.3 3.3-3.3zm0 9.14h13.282a21.519 21.519 0 00-3.264 6.602H13.695c-1.82 0-3.3-1.48-3.3-3.3 0-1.82 1.48-3.301 3.3-3.301zm0 9.141h9.435a21.633 21.633 0 00-.078 6.602h-9.357c-1.82 0-3.3-1.48-3.3-3.3 0-1.821 1.48-3.302 3.3-3.302zm0 15.742c-1.82 0-3.3-1.48-3.3-3.3 0-1.82 1.48-3.301 3.3-3.301h9.875a21.5 21.5 0 003.046 6.602h-12.92zm30.723 6.856c-10.5 0-19.043-8.543-19.043-19.043s8.543-19.043 19.043-19.043 19.043 8.543 19.043 19.043S54.918 63.08 44.418 63.08z"
    fill="#E10303" stroke="#fff" />
  <path
    d="M45.994 58h-3.252V38.98h3.252V58zm-3.516-24.065c0-.527.159-.972.475-1.335.328-.364.809-.545 1.441-.545.633 0 1.114.181 1.442.545.328.363.492.808.492 1.335 0 .528-.164.967-.492 1.319-.328.352-.809.527-1.441.527-.633 0-1.114-.175-1.442-.527-.316-.352-.475-.791-.475-1.319z"
    fill="#E10303" /></svg>
