<svg width="42" height="42" fill="none" xmlns="http://www.w3.org/2000/svg">
  <path
    d="M15.4.35C6.895.35 0 7.245 0 15.75v25.2a.7.7 0 00.7.7h11.9a.7.7 0 00.7-.7v-3.5h8.4a4.906 4.906 0 004.9-4.9v-7.7h3.5a.7.7 0 00.7-.7v-8.4c0-8.505-6.895-15.4-15.4-15.4zm14 23.1h-3.5a.7.7 0 00-.7.7v8.4a3.504 3.504 0 01-3.5 3.5h-9.1a.7.7 0 00-.7.7v3.5H1.4v-24.5c0-7.732 6.268-14 14-14s14 6.268 14 14v7.7z"
    fill="#000" />
  <path
    d="M19.6 25.396V23.08a7.63 7.63 0 002.8-5.93 7.7 7.7 0 10-15.4 0 7.63 7.63 0 002.8 5.93v2.316a2.083 2.083 0 00.854 3.57A2.093 2.093 0 0012.6 31.85h4.2a2.093 2.093 0 001.946-2.881 2.083 2.083 0 00.854-3.573zm-2.8 5.054h-4.2a.7.7 0 010-1.4h4.2a.7.7 0 110 1.4zm1.4-2.8h-7a.7.7 0 010-1.4h7a.7.7 0 110 1.4zm.28-5.468a.7.7 0 00-.28.56v2.108h-7v-2.11a.7.7 0 00-.28-.558 6.3 6.3 0 117.56 0zM14.7 5.25a.7.7 0 00-.7.7v1.4a.7.7 0 001.4 0v-1.4a.7.7 0 00-.7-.7zM9.506 8.81L8.68 7.678a.7.7 0 00-1.133.823l.826 1.132a.7.7 0 001.133-.823zM5.596 13.454v.002l-1.33-.433a.7.7 0 00-.433 1.33l1.33.432a.7.7 0 00.433-1.331zM21.643 7.533a.7.7 0 00-.923.145l-.826 1.132a.7.7 0 101.133.823l.823-1.132a.7.7 0 00-.207-.968zM25.976 13.453a.7.7 0 00-.842-.428l-1.33.433a.7.7 0 00.216 1.366v-.002a.707.707 0 00.217-.034l1.33-.433a.7.7 0 00.409-.902zM41.3 6.65h-2.1v-2.1a.7.7 0 00-.7-.7h-2.8a.7.7 0 00-.7.7v2.1h-2.1a.7.7 0 00-.7.7v2.8a.7.7 0 00.7.7H35v2.1a.7.7 0 00.7.7h2.8a.7.7 0 00.7-.7v-2.1h2.1a.7.7 0 00.7-.7v-2.8a.7.7 0 00-.7-.7zm-.7 2.8h-2.1a.7.7 0 00-.7.7v2.1h-1.4v-2.1a.7.7 0 00-.7-.7h-2.1v-1.4h2.1a.7.7 0 00.7-.7v-2.1h1.4v2.1a.7.7 0 00.7.7h2.1v1.4zM41.3 19.25h-2.1v-2.1a.7.7 0 00-.7-.7h-2.8a.7.7 0 00-.7.7v2.1h-2.1a.7.7 0 00-.7.7v2.8a.7.7 0 00.7.7H35v2.1a.7.7 0 00.7.7h2.8a.7.7 0 00.7-.7v-2.1h2.1a.7.7 0 00.7-.7v-2.8a.7.7 0 00-.7-.7zm-.7 2.8h-2.1a.7.7 0 00-.7.7v2.1h-1.4v-2.1a.7.7 0 00-.7-.7h-2.1v-1.4h2.1a.7.7 0 00.7-.7v-2.1h1.4v2.1a.7.7 0 00.7.7h2.1v1.4zM41.3 31.85h-2.1v-2.1a.7.7 0 00-.7-.7h-2.8a.7.7 0 00-.7.7v2.1h-2.1a.7.7 0 00-.7.7v2.8a.7.7 0 00.7.7H35v2.1a.7.7 0 00.7.7h2.8a.7.7 0 00.7-.7v-2.1h2.1a.7.7 0 00.7-.7v-2.8a.7.7 0 00-.7-.7zm-.7 2.8h-2.1a.7.7 0 00-.7.7v2.1h-1.4v-2.1a.7.7 0 00-.7-.7h-2.1v-1.4h2.1a.7.7 0 00.7-.7v-2.1h1.4v2.1a.7.7 0 00.7.7h2.1v1.4z"
    fill="#E10303" /></svg>
