<svg width="54" height="72" viewBox="0 0 54 72" fill="none" xmlns="http://www.w3.org/2000/svg">
<path d="M47.5178 11.6624C47.9866 12.1312 48.25 12.7671 48.25 13.4301V62C48.25 63.3807 47.1307 64.5 45.75 64.5H3C1.61929 64.5 0.5 63.3807 0.5 62V3C0.5 1.61929 1.61929 0.5 3 0.5H35.3199C35.9829 0.5 36.6188 0.763392 37.0876 1.23223L47.5178 11.6624Z" fill="white" stroke="#E10303"/>
<path d="M48.75 13.1875H36.5625V1" fill="#E10303"/>
<mask id="path-3-inside-1" fill="white">
<path d="M36.5976 40.6257L45.5844 54.2771C45.8389 54.6636 45.7318 55.1832 45.3453 55.4377C45.1597 55.5599 44.9331 55.6033 44.7155 55.5585L39.4696 54.4776C38.9287 54.3661 38.3999 54.7143 38.2884 55.2552L37.2075 60.501C37.1627 60.7187 37.0332 60.9096 36.8476 61.0318C36.4611 61.2862 35.9415 61.1792 35.687 60.7926L26.7002 47.1412"/>
</mask>
<path d="M37.4329 40.0758C37.1292 39.6145 36.5091 39.4868 36.0478 39.7904C35.5865 40.0941 35.4587 40.7143 35.7624 41.1756L37.4329 40.0758ZM27.5355 46.5914C27.2318 46.1301 26.6116 46.0023 26.1503 46.306C25.689 46.6097 25.5613 47.2298 25.8649 47.6911L27.5355 46.5914ZM37.2075 60.501L38.1869 60.7028L37.2075 60.501ZM38.2884 55.2552L39.2678 55.457L38.2884 55.2552ZM44.7155 55.5585L44.5137 56.5379L44.7155 55.5585ZM35.7624 41.1756L44.7492 54.827L46.4197 53.7272L37.4329 40.0758L35.7624 41.1756ZM44.9173 54.579L39.6715 53.4981L39.2678 55.457L44.5137 56.5379L44.9173 54.579ZM37.309 55.0534L36.2281 60.2992L38.1869 60.7028L39.2678 55.457L37.309 55.0534ZM36.5223 60.2428L27.5355 46.5914L25.8649 47.6911L34.8517 61.3425L36.5223 60.2428ZM36.2977 60.1965C36.3725 60.1473 36.473 60.168 36.5223 60.2428L34.8517 61.3425C35.4099 62.1903 36.5496 62.4252 37.3974 61.867L36.2977 60.1965ZM36.2281 60.2992C36.2368 60.2571 36.2618 60.2202 36.2977 60.1965L37.3974 61.867C37.8046 61.599 38.0886 61.1802 38.1869 60.7028L36.2281 60.2992ZM39.6715 53.4981C38.5896 53.2752 37.5319 53.9715 37.309 55.0534L39.2678 55.457L39.2678 55.457L39.6715 53.4981ZM44.7954 54.6024C44.8313 54.5788 44.8752 54.5704 44.9173 54.579L44.5137 56.5379C44.9911 56.6363 45.488 56.541 45.8951 56.2729L44.7954 54.6024ZM44.7492 54.827C44.6999 54.7522 44.7206 54.6516 44.7954 54.6024L45.8951 56.2729C46.743 55.7148 46.9778 54.5751 46.4197 53.7272L44.7492 54.827Z" fill="#E10303" mask="url(#path-3-inside-1)"/>
<mask id="path-5-inside-2" fill="white">
<path d="M29.7826 46.9618L21.0979 60.8073C20.852 61.1994 20.3348 61.3178 19.9428 61.0719C19.7546 60.9538 19.6209 60.7658 19.5713 60.5492L18.3754 55.3284C18.2521 54.79 17.7157 54.4536 17.1774 54.5769L11.9566 55.7728C11.74 55.8224 11.5125 55.784 11.3243 55.6659C10.9322 55.42 10.8138 54.9029 11.0597 54.5108L19.7444 40.6653"/>
</mask>
<path d="M30.6297 47.4932C30.9232 47.0253 30.7818 46.4081 30.3139 46.1146C29.8461 45.8212 29.2289 45.9626 28.9354 46.4304L30.6297 47.4932ZM20.5915 41.1967C20.885 40.7288 20.7436 40.1116 20.2758 39.8181C19.8079 39.5247 19.1907 39.666 18.8972 40.1339L20.5915 41.1967ZM11.9566 55.7728L12.1799 56.7476L11.9566 55.7728ZM17.1774 54.5769L17.4007 55.5517L17.1774 54.5769ZM19.5713 60.5492L18.5966 60.7725L19.5713 60.5492ZM28.9354 46.4304L20.2507 60.276L21.945 61.3387L30.6297 47.4932L28.9354 46.4304ZM20.5461 60.3259L19.3502 55.1051L17.4007 55.5517L18.5966 60.7725L20.5461 60.3259ZM16.9541 53.6022L11.7333 54.7981L12.1799 56.7476L17.4007 55.5517L16.9541 53.6022ZM11.9068 55.0422L20.5915 41.1967L18.8972 40.1339L10.2125 53.9795L11.9068 55.0422ZM11.8556 54.8187C11.9315 54.8663 11.9544 54.9664 11.9068 55.0422L10.2125 53.9795C9.67319 54.8393 9.93301 55.9737 10.7929 56.513L11.8556 54.8187ZM11.7333 54.7981C11.7752 54.7885 11.8192 54.7959 11.8556 54.8187L10.7929 56.513C11.2058 56.772 11.7047 56.8564 12.1799 56.7476L11.7333 54.7981ZM19.3502 55.1051C19.1036 54.0284 18.0308 53.3555 16.9541 53.6022L17.4007 55.5517L17.4007 55.5517L19.3502 55.1051ZM20.4742 60.2248C20.5106 60.2476 20.5365 60.284 20.5461 60.3259L18.5966 60.7725C18.7054 61.2476 18.9985 61.6601 19.4115 61.9191L20.4742 60.2248ZM20.2507 60.276C20.2983 60.2001 20.3984 60.1772 20.4742 60.2248L19.4115 61.9191C20.2713 62.4584 21.4056 62.1986 21.945 61.3387L20.2507 60.276Z" fill="#E10303" mask="url(#path-5-inside-2)"/>
<path d="M35.72 43.8782C33.0788 48.089 27.5241 49.3613 23.3134 46.7201C19.1026 44.0789 17.8303 38.5243 20.4715 34.3135C23.1127 30.1027 28.6673 28.8304 32.8781 31.4716C37.0888 34.1128 38.3612 39.6674 35.72 43.8782Z" fill="white" stroke="#E10303"/>
</svg>
