<svg width="100%" height="100%" viewbox="0 0 253 128" fill="none" xmlns="http://www.w3.org/2000/svg"><g clip-path="url(#prefix__clip0)" fill="#E10303"><path d="M85.846 87.832c-5.263 0-9.574 2.33-12.977 7.037-3.403 4.707-5.127 10.739-5.127 18.188 0 4.752 1.09 8.454 3.312 11.059C73.278 126.72 76.318 128 80.22 128c1.95 0 3.902-.32 5.762-.914 1.86-.594 3.585-1.325 5.218-2.102l3.13-19.056H81.627l-1.18 7.312h5.49l-1.224 7.54c-.273.045-.59.045-.908.091-.317 0-.635.046-.907.046-2.723 0-4.674-.731-5.899-2.194-1.225-1.462-1.815-3.747-1.815-6.809 0-2.239.227-4.341.726-6.397.5-2.057 1.18-3.793 2.042-5.301.908-1.554 2.042-2.834 3.358-3.748 1.316-.914 2.767-1.37 4.4-1.37 1.589 0 3.04.365 4.357 1.142 1.316.777 2.722 2.148 4.174 4.113h.817l1.588-9.048c-1.815-1.326-3.585-2.24-5.263-2.697-1.68-.548-3.54-.776-5.536-.776zM102.498 95.417h4.492l-4.083 24.951h-4.492l-1.135 6.855h16.108l1.134-6.855h-4.492l4.084-24.95h4.492l1.134-6.855h-16.108l-1.134 6.854zM141.519 110.955l-6.942-22.392h-7.941l-6.352 38.66h6.534l4.401-26.779 8.076 26.779h6.08l6.353-38.66h-6.579l-3.63 22.392zM153.497 127.223h19.919l1.18-7.357H161.8l1.588-9.734h11.888l1.225-7.357h-11.888l1.135-6.855h12.84l1.18-7.357h-19.964l-6.307 38.66zM180.448 127.223h19.964l1.18-7.357h-12.84l1.633-9.734h11.888l1.225-7.357H191.61l1.134-6.855h12.841l1.18-7.357H186.8l-6.352 38.66zM233.081 106.111c1.362-2.102 1.997-4.707 1.997-7.815 0-3.29-.908-5.712-2.768-7.311-1.815-1.6-4.446-2.422-7.804-2.422h-10.753l-6.353 38.614h7.079l2.359-14.166h3.993l5.172 14.166h7.941l-6.353-16.314c2.36-1.051 4.175-2.65 5.49-4.752zm-7.168-1.645c-1.044 1.096-2.496 1.599-4.356 1.599h-3.494l1.724-10.373h3.494c1.361 0 2.405.32 3.131.96.726.639 1.043 1.736 1.043 3.29 0 1.964-.499 3.427-1.542 4.524zM14.383 96.743l.046-.046h-.545l1.452-8.591 1.633-9.186H7.94L0 127.223h24.91l1.497-9.185H10.39l1.997-12.156h14.882l1.498-9.185H14.474l-.09.046z"/><path d="M22.46 88.106h8.938l1.498-9.186h-1.951l-8.485 9.186zM251.775 41.128c-.772-1.05-1.679-1.873-2.677-2.559-1.951-1.37-4.038-2.33-6.171-3.153-4.22-1.69-8.485-2.925-12.75-4.204-4.265-1.28-8.485-2.56-12.568-4.25-2.042-.869-3.993-1.782-5.808-2.97-1.769-1.189-3.403-2.651-4.31-4.479l-.59-1.234-.635 1.188c-.862 1.646-.999 3.565-.772 5.301.273 1.737.908 3.428 1.77 4.936s2.042 2.833 3.357 3.93a12.08 12.08 0 003.313 1.919c-3.494.777-6.942 1.782-10.345 2.925a107.94 107.94 0 00-11.162 4.57c3.675-1.6 7.486-2.97 11.298-4.159 3.811-1.188 7.713-2.24 11.661-2.925l1.588-.274-1.543-.457c-3.131-.868-5.717-3.244-7.305-6.078-.771-1.416-1.316-2.97-1.497-4.57-.137-1.142-.046-2.284.272-3.29 1.043 1.6 2.495 2.88 3.993 3.885 1.905 1.28 3.947 2.33 5.989 3.244 4.129 1.828 8.394 3.199 12.614 4.57 4.219 1.37 8.484 2.696 12.523 4.387 1.996.868 3.992 1.782 5.626 3.016 1.316.96 2.405 2.148 2.768 3.427a96.146 96.146 0 00-13.975 1.554 81.081 81.081 0 00-14.701 4.296c-4.764 1.873-9.302 4.204-13.748 6.672-4.447 2.467-8.757 5.072-13.158 7.448-4.402 2.377-8.893 4.57-13.522 6.352a86.57 86.57 0 01-14.292 4.113c-4.9.96-9.846 1.554-14.837 1.828-4.991.229-9.982.274-14.928-.228-9.891-.96-19.601-3.702-28.857-7.54-4.628-1.92-9.075-4.16-13.43-6.672-4.402-2.56-8.939-4.844-13.703-6.627-4.764-1.828-9.755-3.153-14.837-3.61-5.082-.457-10.3.046-15.11 1.782-4.854 1.691-9.165 4.57-12.84 8.043-3.675 3.473-6.715 7.586-9.392 11.882 2.813-4.205 5.99-8.135 9.71-11.516 3.72-3.382 8.03-6.078 12.795-7.632 4.719-1.553 9.8-1.919 14.746-1.37 4.946.548 9.8 1.964 14.429 3.792 4.628 1.828 9.12 4.159 13.385 6.718 4.31 2.65 8.848 5.027 13.476 7.083 9.301 4.159 19.192 7.038 29.401 8.134 2.541.275 5.128.457 7.668.503 2.541.046 5.082 0 7.623-.137 5.082-.274 10.164-.823 15.2-1.782a82.51 82.51 0 0014.746-4.25c4.764-1.828 9.393-4.113 13.839-6.535 1.679-.914 3.312-1.874 4.946-2.788 2.904 1.691 6.125 2.97 9.392 3.793 3.448.869 7.033 1.28 10.572 1.326 6.08.09 12.16-.823 18.013-2.605-.681 1.508-1.407 2.97-2.314 4.341a24.539 24.539 0 01-5.309 5.758c-2.041 1.69-4.401 3.062-6.579 4.753-1.089.868-2.087 1.828-2.858 2.97a11.478 11.478 0 00-1.634 3.747c.409-1.28 1.044-2.513 1.906-3.519.862-1.05 1.906-1.873 2.995-2.604 2.223-1.463 4.718-2.65 6.987-4.204a26.832 26.832 0 006.125-5.667c1.725-2.194 3.131-4.661 4.265-7.22l1.135-2.788-2.859 1.051c-6.307 2.285-13.113 3.473-19.828 3.382-5.989-.092-11.978-1.28-17.242-3.976 1.815-1.051 3.63-2.148 5.491-3.153 4.355-2.468 8.802-4.753 13.43-6.626a78.496 78.496 0 0114.247-4.25c4.9-.96 9.846-1.508 14.837-1.645l1.089-.046.045-1.097a6.598 6.598 0 00-1.179-3.93z"/><path d="M28.948 68.593c4.31-6.764 9.982-12.796 17.06-16.589a39.28 39.28 0 0111.207-4.067c3.902-.822 7.94-1.05 11.888-.914 7.986.32 15.88 2.148 23.503 4.616 1.906.594 3.812 1.28 5.672 1.965 1.86.685 3.811 1.416 5.717 2.056 3.857 1.28 7.804 2.376 11.752 3.199 7.985 1.69 16.152 2.468 24.365 2.102 16.38-.64 32.578-5.804 46.462-14.623l1.86-1.188-1.361-1.737c-1.724-2.148-2.859-4.844-3.539-7.631a24.846 24.846 0 01-.545-8.592c.318-2.833 1.135-5.62 2.496-8.088 1.361-2.468 3.221-4.616 5.49-6.26l2.859-2.332-3.222-1.508C180.585 4.387 169.831 1.005 158.76.229c-5.535-.41-11.071-.182-16.516.595-5.444.776-10.798 2.193-15.971 3.884-5.172 1.69-10.254 3.701-15.291 5.62-5.036 1.92-10.118 3.84-15.29 5.119-5.218 1.28-10.618 1.92-15.972 1.325-5.354-.594-10.526-2.376-15.29-4.98 4.628 2.787 9.8 4.797 15.2 5.574 5.399.823 10.934.366 16.289-.777 5.354-1.142 10.526-2.879 15.653-4.615 5.127-1.782 10.209-3.565 15.382-5.073 5.172-1.508 10.39-2.65 15.653-3.244a73.802 73.802 0 0115.881-.046c9.392.96 18.512 3.93 27.088 7.997a22.35 22.35 0 00-3.993 5.438c-1.588 3.016-2.541 6.352-2.859 9.734a28.731 28.731 0 00.817 10.008c.681 2.559 1.679 5.072 3.176 7.357-12.75 8.18-27.541 13.116-42.696 14.12-7.94.55-15.926 0-23.775-1.461a102.724 102.724 0 01-11.616-2.88 140.325 140.325 0 01-5.717-1.919c-1.906-.685-3.856-1.28-5.762-1.873-7.759-2.33-15.79-4.113-23.912-4.296-4.083-.091-8.167.229-12.16 1.142a40.517 40.517 0 00-11.388 4.342c-7.124 4.021-12.75 10.236-17.015 17.09-1.316 2.149-2.496 4.342-3.63 6.581h.317c1.044-2.193 2.27-4.34 3.585-6.397z"/><path d="M23.05 79.652c.68-1.6 1.451-3.154 2.222-4.707h-.317c-.771 1.553-1.452 3.107-2.133 4.707h.227zM18.966 90.528c.136-.457.272-.869.453-1.326h-.045a47.61 47.61 0 01-.408 1.326zM23.05 79.652h-.227c-.318.73-.59 1.462-.908 2.193h.136c.363-.685.68-1.462.998-2.193zM19.42 89.202c.817-2.467 1.724-4.89 2.722-7.311h-.181c-.953 2.422-1.815 4.844-2.541 7.311zM54.675 110.955l-6.897-22.392h-7.94l-6.353 38.66h6.534l4.401-26.779 8.077 26.779h6.08l6.352-38.66h-6.58l-3.674 22.392z"/></g><defs><clipPath id="prefix__clip0"><path fill="#fff" d="M0 0h253v128H0z"/></clipPath></defs></svg>
