<svg width="42" height="42" fill="none" xmlns="http://www.w3.org/2000/svg">
  <g clip-path="url(#prefix__clip0)">
    <path
      d="M17.51 2.808c-8.116 0-14.695 6.58-14.695 14.695s6.579 14.694 14.694 14.694c8.116 0 14.695-6.579 14.695-14.694C32.195 9.39 25.62 2.817 17.509 2.808zm0 1.4a13.28 13.28 0 0110.856 5.647l-1.749 1.749a2.762 2.762 0 00-1.41-.399 2.799 2.799 0 00-2.8 2.799c.003.498.14.986.397 1.413l-4.582 4.582a2.714 2.714 0 00-2.825 0l-3.183-3.183c.258-.426.395-.914.397-1.412a2.793 2.793 0 00-5.498-.7H4.517A13.314 13.314 0 0117.509 4.208zm9.096 9.796a1.4 1.4 0 11-2.799 0 1.4 1.4 0 012.799 0zm-8.397 8.397a1.4 1.4 0 11-2.799 0 1.4 1.4 0 012.8 0zm-6.997-6.998a1.4 1.4 0 11-2.8 0 1.4 1.4 0 012.8 0zm12.757 13.725a13.283 13.283 0 01-6.46 1.67c-7.337.005-13.29-5.94-13.295-13.277 0-.474.025-.947.075-1.418h2.824a2.799 2.799 0 002.7 2.1c.497-.003.986-.14 1.412-.397l3.182 3.182a2.762 2.762 0 00-.396 1.413 2.799 2.799 0 105.598 0 2.762 2.762 0 00-.397-1.413l4.582-4.582c.426.257.914.394 1.412.397a2.799 2.799 0 002.8-2.8 2.762 2.762 0 00-.397-1.412l1.525-1.525c3.561 6.414 1.249 14.5-5.165 18.062z"
      fill="#000" />
    <path
      d="M35.003 7.007a2.799 2.799 0 002.7-2.1H42v-1.4h-4.298a2.799 2.799 0 00-2.7-2.098 2.799 2.799 0 00-2.798 2.799c.002.498.14.986.396 1.412l-1.229 1.23C25.488-.814 14.507-2.258 6.843 3.624-.821 9.507-2.265 20.49 3.617 28.153c5.553 7.234 15.732 8.989 23.386 4.032l2.112 2.111.99.99 5.632 5.633a3.668 3.668 0 105.188-5.188l-5.633-5.633-.99-.99-2.11-2.111a17.435 17.435 0 000-18.988l1.399-1.4c.426.257.914.395 1.412.398zm0-4.199a1.4 1.4 0 110 2.799 1.4 1.4 0 010-2.799zm4.933 33.912a2.27 2.27 0 11-3.21 3.21l-5.632-5.634 3.209-3.209 5.633 5.633zm-6.623-6.622l-3.209 3.209-1.936-1.937c.098-.076.19-.159.288-.236a18.068 18.068 0 00.767-.651l.224-.21c.287-.269.564-.547.833-.834.07-.075.14-.147.21-.224a17.317 17.317 0 00.65-.766c.078-.097.161-.19.237-.288l1.936 1.937zm-2.713-3.25c-.22.308-.448.61-.688.9-.07.084-.145.166-.217.25a15.79 15.79 0 01-1.691 1.69c-.083.07-.165.147-.25.217-.29.24-.592.468-.9.688-7.243 5.175-17.31 3.498-22.486-3.745C-.807 19.604.87 9.537 8.114 4.362 15.358-.813 25.424.864 30.6 8.107a16.12 16.12 0 010 18.74z"
      fill="#000" />
    <path
      d="M26.606 14.004a1.4 1.4 0 11-2.799 0 1.4 1.4 0 012.799 0zm-8.397 8.397a1.4 1.4 0 11-2.799 0 1.4 1.4 0 012.8 0zm-6.997-6.998a1.4 1.4 0 11-2.8 0 1.4 1.4 0 012.8 0zM35.003 2.808a1.4 1.4 0 110 2.799 1.4 1.4 0 010-2.799z"
      fill="#E10303" />
  </g>
  <defs>
    <clipPath id="prefix__clip0">
      <path fill="#fff" d="M0 0h42v42H0z" />
    </clipPath>
  </defs>
</svg>
