<svg viewBox="0 0 30 30" fill="none" xmlns="http://www.w3.org/2000/svg"><path d="M10.805 7.857l8.607.001c1.125.014 1.712.14 2.32.465a3.31 3.31 0 011.373 1.373c.346.647.466 1.27.466 2.538v5.532c0 1.269-.12 1.891-.466 2.538a3.31 3.31 0 01-1.373 1.373c-.646.346-1.269.466-2.538.466h-8.389c-1.269 0-1.89-.12-2.537-.466a3.31 3.31 0 01-1.374-1.373c-.345-.647-.466-1.27-.466-2.538l.002-5.75c.013-1.124.139-1.711.465-2.32a3.31 3.31 0 011.373-1.373c.646-.346 1.268-.466 2.537-.466zM21.92 10.52l-4.899 4.899a2.857 2.857 0 01-3.927.107l-.113-.107-4.9-4.899c-.163.368-.223.788-.223 1.714v5.532c0 1.053.077 1.453.297 1.864.183.341.446.605.787.787.363.194.717.277 1.519.294l.345.003h8.39c1.053 0 1.452-.077 1.863-.297.342-.182.605-.446.788-.787.194-.363.277-.717.293-1.518l.004-.346v-5.532c0-.926-.06-1.346-.224-1.714zm-2.725-1.234h-8.389c-.925 0-1.346.06-1.714.223l4.899 4.9a1.429 1.429 0 001.93.083l.09-.084 4.898-4.899c-.367-.164-.788-.223-1.714-.223z" fill="#E10303"/></svg>
