<svg width="18" height="23" fill="none" xmlns="http://www.w3.org/2000/svg">
  <path d="M15 18v3H3v-3H1.5v3A1.5 1.5 0 003 22.5h12a1.5 1.5 0 001.5-1.5v-3H15z" fill="#E10303" />
  <path
    d="M12.75 15.75l-1.06-1.06-1.94 1.939V10.5h-1.5v6.129l-1.94-1.94-1.06 1.061L9 19.5l3.75-3.75zM18 2V.5h-4.5V8H15V5h2.25V3.5H15V2h3zM9.75 8h-3V.5h3A2.252 2.252 0 0112 2.75v3A2.252 2.252 0 019.75 8zm-1.5-1.5h1.5a.75.75 0 00.75-.75v-3A.75.75 0 009.75 2h-1.5v4.5zM3.75.5H0V8h1.5V5.75h2.25a1.502 1.502 0 001.5-1.5V2A1.502 1.502 0 003.75.5zM1.5 4.25V2h2.25v2.25H1.5z"
    fill="#E10303" /></svg>
