<svg viewBox="0 0 30 30" fill="none" xmlns="http://www.w3.org/2000/svg"><path d="M19.354 18.26l.115-.13a.856.856 0 01.12-.043 1.238 1.238 0 00.15.053c.483.239 1.077.512 1.555.729a92.792 92.792 0 00.835.373l.052.022.013.006h0l.913.415V19.868c-.096.474-.176.829-.309 1.095-.03.061-.12.163-.344.387-.054.054-.11.097-.21.172l-.01.007c-.093.07-.226.17-.361.305l-.194.194.53.53-.53-.53-.002.002-.003.002a.695.695 0 01-.072.035l-.035.015c-.09.039-.239.104-.407.21-.327.158-.769.291-1.083.291H19.216h0c-.171-.044-.341-.068-.463-.086-.008 0-.015-.002-.023-.003a2.272 2.272 0 01-.353-.066l-.025-.008-.024-.006c-2.47-.64-4.67-1.823-6.608-3.467a3.06 3.06 0 00-.404-.432l-.153-.137c-.087-.076-.16-.141-.245-.226l-.388-.388-.008-.008-.01-.009a15.385 15.385 0 01-3.4-4.675l-.083-.247-.01-.03-.012-.028c-.259-.605-.424-1.279-.424-1.934 0-.873.315-1.766.883-2.511.117-.122.205-.24.268-.324l.007-.01a3.3 3.3 0 01.114-.145c.104-.064.194-.132.254-.177l.015-.012c.11-.083.152-.11.176-.123l.11-.054.005-.005.103-.025.017-.004c.088-.022.112-.026.112-.026H9.58a.47.47 0 01.09.043.28.28 0 01.07.074 52.166 52.166 0 011.259 2.877 11.118 11.118 0 01.192.525.77.77 0 01.013.044l.009.046.013.04c0 .001.005.031-.008.095a.672.672 0 01-.072.184 2.57 2.57 0 00-.286.41c-.082.137-.11.175-.13.195a9.387 9.387 0 00-.49.543c-.07.082-.13.155-.173.208l-.05.062-.003.002c-.19.214-.24.46-.259.59-.02.14-.02.284-.02.37v.192l.08.159c.02.04.027.059.041.096l.03.077c.03.075.077.181.162.294l.057.114.008.015.008.014c.533.96 1.267 1.793 1.966 2.492.127.127.276.246.387.335l.014.01c.13.104.215.174.277.236.862.862 1.919 1.488 3.03 1.994l.016.007.016.006.374.15c.085.063.172.114.248.152.095.047.298.14.529.14h.097c.404 0 .844-.192 1.098-.605.646-.737.995-1.133 1.182-1.343z" stroke="#E10303" stroke-width="1.5"/></svg>
