<svg width="23" height="24" fill="none" xmlns="http://www.w3.org/2000/svg">
  <path
    d="M18.706 10.298c0-4.267-3.277-7.727-7.32-7.727s-7.32 3.46-7.32 7.727c0 3.041 1.773 6.712 5.271 11.07.957 1.194 2.65 1.343 3.782.334a2.76 2.76 0 00.316-.333c3.498-4.36 5.27-8.03 5.27-11.07zm-6.637 10.095a1.02 1.02 0 01-1.49-.131c-3.273-4.078-4.886-7.42-4.886-9.964 0-3.32 2.55-6.012 5.693-6.012 3.144 0 5.693 2.691 5.693 6.012 0 2.545-1.613 5.886-4.886 9.964-.037.047-.08.09-.124.13zM8.133 10.286c0-1.893 1.457-3.429 3.253-3.429s3.253 1.536 3.253 3.429c0 1.893-1.457 3.428-3.253 3.428s-3.253-1.535-3.253-3.428zm1.627 0c0 .946.728 1.714 1.626 1.714.898 0 1.627-.768 1.627-1.714 0-.947-.729-1.715-1.627-1.715S9.76 9.34 9.76 10.286z"
    fill="#E10303" /></svg>
