<svg width="42" height="42" fill="none" xmlns="http://www.w3.org/2000/svg">
  <path
    d="M21 1.313A19.688 19.688 0 007.08 34.92 19.688 19.688 0 0034.92 7.08a19.559 19.559 0 00-13.92-5.766zm17.173 13.125h-7.589a23.941 23.941 0 00-2.131-5.125 23.956 23.956 0 004.68-2.112 18.328 18.328 0 015.04 7.236zM21.656 3.288a22.7 22.7 0 014.782 5.238 22.643 22.643 0 01-4.782.651V3.288zm1.397-.549a18.186 18.186 0 018.992 3.573 22.637 22.637 0 01-4.284 1.844 24.046 24.046 0 00-4.708-5.417zm-2.71.55v5.888a22.643 22.643 0 01-4.78-.651 22.7 22.7 0 014.78-5.238zM14.24 8.155a22.636 22.636 0 01-4.284-1.844 18.186 18.186 0 018.992-3.573 24.04 24.04 0 00-4.708 5.417zm6.105 2.334v3.948h-7.56a22.65 22.65 0 012.056-4.742c1.798.477 3.645.744 5.504.794zm1.312 0c1.86-.05 3.706-.317 5.504-.794a22.647 22.647 0 012.055 4.742h-7.559V10.49zM8.007 8.007c.279-.279.565-.547.86-.806 1.48.87 3.05 1.578 4.68 2.112a23.941 23.941 0 00-2.131 5.125H3.827a18.326 18.326 0 014.18-6.431zm-4.18 19.556h7.589a23.945 23.945 0 002.132 5.124A23.954 23.954 0 008.867 34.8a18.326 18.326 0 01-5.04-7.236zm16.517 11.149a22.7 22.7 0 01-4.781-5.238 22.643 22.643 0 014.78-.651v5.889zm-1.397.549a18.186 18.186 0 01-8.992-3.573 22.636 22.636 0 014.284-1.844 24.039 24.039 0 004.708 5.417zm2.71-.55v-5.888c1.612.046 3.215.264 4.78.651a22.7 22.7 0 01-4.78 5.238zm6.104-4.867a22.637 22.637 0 014.284 1.844 18.186 18.186 0 01-8.992 3.573 24.044 24.044 0 004.708-5.417zm-6.105-2.334v-3.947h7.56a22.649 22.649 0 01-2.056 4.742 23.95 23.95 0 00-5.504-.795zm-1.312 0c-1.86.05-3.706.317-5.504.795a22.65 22.65 0 01-2.055-4.742h7.559v3.947zm13.65 2.483c-.28.28-.566.548-.86.806a23.954 23.954 0 00-4.681-2.112 23.95 23.95 0 002.131-5.124h7.59a18.328 18.328 0 01-4.18 6.43zm4.623-7.743H3.383a18.56 18.56 0 010-10.5h35.234a18.561 18.561 0 010 10.5z"
    fill="#000" />
  <path
    d="M16.599 17.255l-3.282 3.281a.655.655 0 000 .928l3.282 3.281.928-.928L14.709 21l2.818-2.817-.928-.928zM28.683 20.536l-3.281-3.281-.928.928L27.29 21l-2.817 2.817.928.928 3.281-3.28a.657.657 0 000-.929zM22.382 16.77l-3.938 7.874 1.174.587 3.938-7.875-1.174-.587z"
    fill="#E10303" /></svg>
