<svg width="65" height="65" viewBox="0 0 65 65" fill="none" xmlns="http://www.w3.org/2000/svg">
<path d="M7.6375 14.2492C7.29219 13.2844 7.10938 12.2484 7.10938 11.1719C7.10938 6.12422 11.2023 2.03125 16.25 2.03125C20.3023 2.03125 23.725 4.66172 24.9234 8.31797C25.4008 8.19609 25.8984 8.125 26.4063 8.125C28.1125 8.125 29.6461 8.82578 30.7531 9.95312C28.1227 11.7914 26.4063 14.8383 26.4063 18.2812C26.4063 18.982 26.4773 19.6625 26.6195 20.3227C26.5484 20.3125 26.4773 20.3125 26.4063 20.3125C23.7555 20.3125 21.5008 22.0086 20.6578 24.375H19.2969H18.2813H7.10938C4.30625 24.375 2.03125 22.1 2.03125 19.2969C2.03125 16.4937 4.30625 14.2188 7.10938 14.2188C7.29219 14.2188 7.46484 14.2289 7.6375 14.2492Z" fill="white"/>
<path d="M45.5608 13.5687C46.739 12.6953 48.1913 12.1875 49.7655 12.1875C53.696 12.1875 56.8749 15.3664 56.8749 19.2969C56.8749 19.6422 56.8444 19.9875 56.7937 20.3125H56.8749C60.2366 20.3125 62.9687 23.0445 62.9687 26.4062C62.9687 29.768 60.2366 32.5 56.8749 32.5H36.9687L37.1312 32.1852L32.8147 27.8687L30.4687 29.0469C28.8741 28.0414 27.0968 27.2898 25.2077 26.8633L24.3749 24.375H20.6577C21.5007 22.0086 23.7554 20.3125 26.4062 20.3125C26.4772 20.3125 26.5483 20.3125 26.6194 20.3227C26.4772 19.6625 26.4062 18.982 26.4062 18.2812C26.4062 14.8383 28.1226 11.7914 30.753 9.95313C32.3983 8.80547 34.3991 8.125 36.5624 8.125C40.4726 8.125 43.8647 10.3289 45.5608 13.5687Z" fill="white"/>
<path d="M20.6578 24.375H24.375L25.2078 26.8633C27.0969 27.2898 28.8742 28.0414 30.4688 29.0469L32.8148 27.8688L37.1313 32.1852L36.9688 32.5L35.9531 34.5312C36.9586 36.1258 37.7102 37.9031 38.1367 39.7922L40.625 40.625V46.7188L38.1367 47.5516C37.7102 49.4406 36.9586 51.218 35.9531 52.8125L37.1313 55.1586L32.8148 59.475L30.4688 58.2969C28.8742 59.3023 27.0969 60.0539 25.2078 60.4805L24.375 62.9688H18.2812L17.4484 60.4805C15.5594 60.0539 13.782 59.3023 12.1875 58.2969L9.84141 59.475L5.525 55.1586L6.70312 52.8125C5.69766 51.218 4.94609 49.4406 4.51953 47.5516L2.03125 46.7188V40.625L4.51953 39.7922C4.94609 37.9031 5.69766 36.1258 6.70312 34.5312L5.525 32.1852L9.84141 27.8688L12.1875 29.0469C13.782 28.0414 15.5594 27.2898 17.4484 26.8633L18.2812 24.375H19.2969H20.6578Z" fill="white"/>
<path d="M21.3281 30.9688C28.3442 30.9688 34.0312 36.6558 34.0312 43.6719C34.0312 50.6879 28.3442 56.375 21.3281 56.375C14.3121 56.375 8.625 50.6879 8.625 43.6719C8.625 36.6558 14.3121 30.9688 21.3281 30.9688Z" fill="white" stroke="#E10303"/>
<path d="M37.113 34.4805L37.5954 33.5156H56.875C60.7943 33.5156 63.9844 30.3255 63.9844 26.4062C63.9844 22.8516 61.362 19.8981 57.8896 19.3812C57.8906 19.3527 57.8906 19.3243 57.8906 19.2969C57.8906 14.817 54.2455 11.1719 49.7656 11.1719C48.361 11.1719 47.0387 11.5304 45.8849 12.1601C43.8293 9.02891 40.3589 7.10938 36.5625 7.10938C34.4825 7.10938 32.5406 7.69133 30.872 8.68461C29.4034 7.4882 27.5326 6.91539 25.5775 7.16117C23.987 3.45109 20.343 1.01562 16.25 1.01562C10.6498 1.01562 6.09375 5.57172 6.09375 11.1719C6.09375 11.8808 6.175 12.5775 6.3182 13.261C3.33125 13.651 1.01562 16.2053 1.01562 19.2969C1.01562 22.6576 3.74867 25.3906 7.10938 25.3906H16.8716L16.6664 26.0061C15.081 26.4235 13.5616 27.0542 12.1367 27.887L9.63727 26.6368L4.29203 31.982L5.54227 34.4815C4.71047 35.9064 4.07977 37.4258 3.66133 39.0112L1.01562 39.8927V47.45L3.66234 48.3326C4.07977 49.918 4.71047 51.4373 5.54328 52.8623L4.29305 55.3617L9.63828 60.707L12.1377 59.4567C13.5627 60.2885 15.082 60.9192 16.6674 61.3377L17.549 63.9844H25.1062L25.9888 61.3377C27.5742 60.9202 29.0936 60.2895 30.5185 59.4567L33.018 60.707L38.3632 55.3617L37.113 52.8623C37.9448 51.4373 38.5755 49.918 38.9939 48.3326L41.6406 47.451V39.8937L38.9939 39.0112C38.5755 37.4258 37.9448 35.9064 37.113 34.4805ZM44.2416 13.3565C42.6461 14.8403 41.6406 16.9508 41.6406 19.2969H43.6719C43.6719 15.9362 46.4049 13.2031 49.7656 13.2031C53.1263 13.2031 55.8594 15.9362 55.8594 19.2969C55.8594 19.5548 55.837 19.8331 55.7883 20.1723L55.704 21.3281H56.875C59.6751 21.3281 61.9531 23.6062 61.9531 26.4062C61.9531 29.2063 59.6751 31.4844 56.875 31.4844H37.8666L33.019 26.6368L30.5195 27.887C29.0946 27.0552 27.5752 26.4245 25.9898 26.0061L25.1073 23.3594H22.3468C23.2893 22.1061 24.7823 21.3281 26.4062 21.3281C28.5553 21.3281 30.4799 22.6891 31.1949 24.7132L33.1114 24.0368C32.2319 21.5475 30.0473 19.7783 27.492 19.3822C27.4483 19.0176 27.4219 18.6499 27.4219 18.2812C27.4219 13.2407 31.522 9.14062 36.5625 9.14062C39.7018 9.14062 42.5669 10.7453 44.2416 13.3565ZM7.10938 23.3594C4.86891 23.3594 3.04688 21.5373 3.04688 19.2969C3.04688 17.0564 4.86891 15.2344 7.10938 15.2344C9.34984 15.2344 11.1719 17.0564 11.1719 19.2969H13.2031C13.2031 16.3881 11.1536 13.9537 8.42461 13.3504C8.22859 12.6455 8.125 11.9163 8.125 11.1719C8.125 6.69195 11.7701 3.04688 16.25 3.04688C19.7641 3.04688 22.8637 5.29141 23.9637 8.63078L24.2592 9.52859L25.1753 9.29805C26.6256 8.93648 28.015 9.20766 29.1484 9.94703C26.8491 11.9955 25.3906 14.9673 25.3906 18.2812C25.3906 18.6459 25.416 19.0095 25.4516 19.372C23.0841 19.694 21.0336 21.1951 20.0027 23.3594H19.2969H17.549H7.10938ZM39.6094 45.9865L37.2795 46.7634L37.1516 47.32C36.7494 49.072 36.0567 50.7396 35.0939 52.2773L34.7913 52.7617L35.8922 54.9626L32.6178 58.237L30.417 57.136L29.9325 57.4387C28.3948 58.4015 26.7272 59.0941 24.9752 59.4963L24.4187 59.6243L23.6427 61.9531H19.0125L18.2355 59.6233L17.679 59.4953C15.927 59.0931 14.2594 58.4005 12.7217 57.4377L12.2373 57.135L10.0384 58.2359L6.76406 54.9616L7.865 52.7607L7.56234 52.2762C6.59953 50.7386 5.90688 49.0709 5.50469 47.319L5.37672 46.7624L3.04688 45.9865V41.3563L5.37672 40.5793L5.50469 40.0227C5.90688 38.2708 6.59953 36.6031 7.56234 35.0655L7.865 34.581L6.76406 32.3822L10.0384 29.1078L12.2393 30.2087L12.7238 29.9061C14.2614 28.9433 15.9291 28.2506 17.681 27.8484L18.2376 27.7205L19.0135 25.3906H19.2969H23.6427L24.4197 27.7205L24.9762 27.8484C26.7282 28.2506 28.3959 28.9433 29.9335 29.9061L30.418 30.2087L32.6188 29.1078L35.8932 32.3822L34.7923 34.583L35.0949 35.0675C36.0577 36.6052 36.7504 38.2728 37.1526 40.0248L37.2805 40.5813L39.6094 41.3573V45.9865Z" fill="#E10303" stroke="white" stroke-linecap="round" stroke-linejoin="round"/>
<path d="M50.6385 11.484L50.4465 11.5582L50.3623 11.7461L40.0436 34.7957L39.5467 35.9058L40.6807 35.4662L49.7305 31.9581L43.0604 44.2617L42.9666 44.4348L43.016 44.6254L43.2686 45.6006L43.5836 46.8165L44.1904 45.7168L53.4378 28.9573L54.1472 27.6715L52.8006 28.2572L42.996 32.5216L52.5038 11.6828L53.0129 10.5668L51.8687 11.0088L50.6385 11.484Z" fill="#E10303" stroke="white"/>
</svg>
