<svg width="49" height="65" viewBox="0 0 49 65" fill="none" xmlns="http://www.w3.org/2000/svg">
<path d="M47.5178 11.6624C47.9866 12.1312 48.25 12.7671 48.25 13.4301V62C48.25 63.3807 47.1307 64.5 45.75 64.5H3C1.61929 64.5 0.5 63.3807 0.5 62V3C0.5 1.61929 1.61929 0.5 3 0.5H35.3199C35.9829 0.5 36.6188 0.763392 37.0876 1.23223L47.5178 11.6624Z" fill="white" stroke="#E10303"/>
<path d="M48.75 13.1875H36.5625V1" fill="#E10303"/>
<path d="M28.7117 23.8298H21.5226C20.6459 23.8298 19.9327 24.5679 19.9327 25.4751V29.2664H13.2275C12.3508 29.2664 11.6376 30.0045 11.6376 30.9116V42.4285H10.2498C9.677 42.4285 9.21289 42.9088 9.21289 43.5015C9.21289 44.0942 9.677 44.5745 10.2498 44.5745H39.9845C40.5573 44.5745 41.0214 44.0942 41.0214 43.5015C41.0214 42.9088 40.5573 42.4285 39.9845 42.4285H38.5967V36.3482C38.5967 35.441 37.8835 34.7029 37.0068 34.7029H30.3016V25.4751C30.3016 24.5679 29.5884 23.8298 28.7117 23.8298ZM13.7113 31.4124H19.9327V42.4285H13.7113V31.4124ZM22.0065 25.9758H28.2278V42.4285H22.0065V25.9758ZM36.523 36.8489V42.4285H30.3016V36.8489H36.523Z" fill="#E10303" stroke="white"/>
</svg>
