<svg width="50" height="50" viewBox="0 0 50 50" fill="none" xmlns="http://www.w3.org/2000/svg">
<g clip-path="url(#clip0)">
<path d="M8.79402 38.6669C8.09402 38.6669 7.42111 38.8416 6.82411 39.1697C3.67928 35.1383 1.95312 30.1304 1.95312 25C1.95312 12.2917 12.2917 1.95312 25 1.95312C26.545 1.95312 28.0891 2.10686 29.5898 2.41013C30.1178 2.51694 30.6335 2.17514 30.7404 1.64642C30.8472 1.11771 30.5054 0.602722 29.9767 0.495529C28.3489 0.166702 26.6747 0 25 0C18.3224 0 12.0441 2.60048 7.32231 7.32231C2.60048 12.0441 0 18.3224 0 25C0 30.6171 1.90735 36.0989 5.37987 40.4934C4.93279 41.1613 4.69246 41.9464 4.69246 42.7685C4.69246 43.8641 5.11932 44.894 5.89409 45.6684C6.66847 46.4432 7.69844 46.87 8.79402 46.87C9.8896 46.87 10.9196 46.4432 11.6943 45.6684C12.4691 44.894 12.8956 43.8637 12.8956 42.7681C12.8956 41.6729 12.4691 40.6425 11.6943 39.8682C10.9196 39.0934 9.8896 38.6669 8.79402 38.6669ZM10.313 44.2875C9.90753 44.6934 9.36775 44.9169 8.79402 44.9169C8.22029 44.9169 7.68089 44.6934 7.27501 44.2875C6.86913 43.8816 6.64558 43.3422 6.64558 42.7685C6.64558 42.1944 6.86913 41.655 7.27501 41.2491C7.68051 40.8432 8.22029 40.62 8.79402 40.62C9.36775 40.62 9.90715 40.8436 10.313 41.2491C10.7189 41.655 10.9425 42.1944 10.9425 42.7685C10.9425 43.3422 10.7189 43.8816 10.313 44.2875Z" fill="#E10303"/>
<path d="M44.6195 9.50545C45.6811 7.91281 45.5106 5.73538 44.1064 4.33119C43.3316 3.55681 42.3017 3.12994 41.2061 3.12994C40.1105 3.12994 39.0805 3.55681 38.3058 4.33119C37.531 5.10596 37.1045 6.13593 37.1045 7.23151C37.1045 8.32709 37.531 9.35706 38.3058 10.1318C39.0805 10.9066 40.1105 11.3331 41.2061 11.3331C41.9061 11.3331 42.579 11.1584 43.176 10.8303C46.3208 14.862 48.047 19.8696 48.047 25C48.047 37.7083 37.7084 48.0469 25.0001 48.0469C23.4704 48.0469 21.9407 47.8962 20.4541 47.5986C19.9254 47.493 19.4108 47.8359 19.3048 48.3646C19.1991 48.8937 19.542 49.4079 20.0708 49.514C21.6832 49.8363 23.3419 50 25.0001 50C31.6777 50 37.956 47.3995 42.6778 42.6777C47.3996 37.9558 50.0001 31.6776 50.0001 25C50.0001 19.3825 48.0924 13.9004 44.6195 9.50545ZM39.6871 8.7509C39.2812 8.34502 39.0576 7.80562 39.0576 7.23151C39.0576 6.65778 39.2812 6.11838 39.6871 5.71249C40.0926 5.30661 40.6324 5.08307 41.2061 5.08307C41.7798 5.08307 42.3196 5.30661 42.7255 5.71249C43.5628 6.5502 43.5628 7.91319 42.7255 8.7509C42.3196 9.1564 41.7798 9.37994 41.2061 9.37994C40.632 9.37994 40.0926 9.1564 39.6871 8.7509Z" fill="#E10303"/>
<path d="M20.9701 41.7969C20.9701 42.3363 21.4076 42.7734 21.9467 42.7734H28.0528C28.5922 42.7734 29.0294 42.3363 29.0294 41.7969V39.9036C30.3134 39.558 31.541 39.0491 32.6946 38.3846L34.0312 39.7213C34.2143 39.9044 34.4627 40.0074 34.7221 40.0074C34.9807 40.0074 35.2294 39.9044 35.4125 39.7209L39.7285 35.4019C40.1096 35.0204 40.1096 34.4021 39.7285 34.021L38.3933 32.6859C39.0579 31.5323 39.5667 30.3047 39.9124 29.0207H41.7983C42.3377 29.0207 42.7749 28.5835 42.7749 28.0441V21.9379C42.7749 21.3985 42.3377 20.9614 41.7983 20.9614H39.912C39.5664 19.6777 39.0579 18.4502 38.3933 17.2966L39.7212 15.9687C39.9043 15.7856 40.0073 15.5369 40.0073 15.2779C40.007 15.0188 39.904 14.7701 39.7209 14.587L35.4015 10.2711C35.0204 9.88998 34.402 9.88998 34.0206 10.2715L32.6946 11.5978C31.541 10.9333 30.3134 10.4244 29.0294 10.0788V8.20312C29.0294 7.66373 28.5922 7.22656 28.0528 7.22656H21.9467C21.4076 7.22656 20.9701 7.66373 20.9701 8.20312V10.0792C19.6864 10.4244 18.4589 10.9333 17.3053 11.5978L15.9789 10.2715C15.5979 9.89037 14.9795 9.88998 14.598 10.2711L10.279 14.5874C10.0955 14.7705 9.99254 15.0188 9.99254 15.2779C9.99254 15.5369 10.0955 15.7856 10.2786 15.9687L11.6065 17.2966C10.942 18.4502 10.4331 19.6774 10.0875 20.9614H8.20497C7.66557 20.9614 7.22841 21.3985 7.22841 21.9376L7.22498 28.0437C7.2246 28.3028 7.32759 28.5515 7.5107 28.7346C7.6938 28.9177 7.94214 29.0207 8.20154 29.0207H10.0875C10.4331 30.3047 10.942 31.5323 11.6065 32.6859L10.2714 34.021C9.89031 34.4021 9.88992 35.0204 10.2714 35.4019L14.5873 39.7209C14.7704 39.904 15.0188 40.0074 15.2778 40.0074H15.2782C15.5372 40.0074 15.7855 39.9044 15.9686 39.7213L17.3049 38.3846C18.4589 39.0491 19.6864 39.558 20.9701 39.9036V41.7969ZM17.6879 36.3308C17.3015 36.0809 16.793 36.1351 16.4672 36.4605L15.2782 37.6495L12.3428 34.7118L13.5307 33.5236C13.8561 33.1982 13.9102 32.6897 13.6604 32.3032C12.775 30.933 12.1524 29.4312 11.8106 27.8389C11.7137 27.3891 11.3162 27.0676 10.8558 27.0676H9.17848L9.18077 22.9145H10.8558C11.3162 22.9145 11.7137 22.5933 11.8106 22.1432C12.1524 20.5513 12.775 19.0495 13.6604 17.6792C13.9102 17.2928 13.8561 16.7843 13.5307 16.4589L12.3504 15.2782L15.2881 12.3428L16.4672 13.5223C16.793 13.8477 17.3011 13.9015 17.6879 13.652C19.0578 12.7666 20.5596 12.1441 22.1519 11.8023C22.6016 11.7054 22.9232 11.3075 22.9232 10.8475V9.17969H27.0763V10.8471C27.0763 11.3075 27.3975 11.7054 27.8476 11.8019C29.4395 12.1441 30.9417 12.7663 32.3116 13.6517C32.698 13.9015 33.2065 13.8477 33.5319 13.522L34.7114 12.3428L37.6491 15.2782L36.4688 16.4585C36.1431 16.7843 36.0893 17.2928 36.3391 17.6792C37.2245 19.0495 37.8467 20.5513 38.1889 22.1432C38.2854 22.5933 38.6833 22.9145 39.1437 22.9145H40.8218V27.0676H39.1437C38.6833 27.0676 38.2858 27.3891 38.1889 27.8389C37.8471 29.4308 37.2245 30.933 36.3391 32.3029C36.0893 32.6897 36.1434 33.1982 36.4688 33.5236L37.6567 34.7115L34.7213 37.6492L33.5323 36.4605C33.2065 36.1347 32.698 36.0809 32.3116 36.3308C30.9413 37.2162 29.4395 37.8384 27.8476 38.1805C27.3975 38.2774 27.0763 38.6749 27.0763 39.1354V40.8203H22.9232V39.1354C22.9232 38.6753 22.6016 38.2774 22.1519 38.1805C20.56 37.8387 19.0582 37.2162 17.6879 36.3308Z" fill="#E10303"/>
<path d="M33.0692 25C33.0692 20.5506 29.4495 16.9308 25 16.9308C20.5506 16.9308 16.9308 20.5506 16.9308 25C16.9308 29.4495 20.5506 33.0692 25 33.0692C29.4495 33.0692 33.0692 29.4495 33.0692 25ZM18.8839 25C18.8839 21.6274 21.6274 18.8839 25 18.8839C28.3726 18.8839 31.1161 21.6278 31.1161 25C31.1161 28.3722 28.3726 31.1161 25 31.1161C21.6274 31.1161 18.8839 28.3726 18.8839 25Z" fill="#E10303"/>
<path d="M33.9921 3.69341C34.2492 3.69341 34.5009 3.58888 34.6825 3.4073C34.8641 3.22458 34.9686 2.97281 34.9686 2.7157C34.9686 2.46011 34.8645 2.20796 34.6825 2.02524C34.5009 1.84366 34.2492 1.73914 33.9921 1.73914C33.7342 1.73914 33.4836 1.84366 33.302 2.02524C33.12 2.20796 33.0155 2.45897 33.0155 2.7157C33.0155 2.97357 33.12 3.22458 33.302 3.4073C33.4836 3.58888 33.7342 3.69341 33.9921 3.69341Z" fill="#E10303"/>
<path d="M16.0507 46.3242C15.7939 46.3242 15.5418 46.4287 15.3602 46.6103C15.1786 46.7918 15.0741 47.044 15.0741 47.3007C15.0741 47.5586 15.1786 47.8096 15.3602 47.9912C15.5418 48.1728 15.7939 48.2773 16.0507 48.2773C16.3074 48.2773 16.5595 48.1728 16.7411 47.9912C16.9227 47.8096 17.0272 47.5574 17.0272 47.3007C17.0272 47.044 16.9227 46.7918 16.7411 46.6103C16.5595 46.4287 16.3074 46.3242 16.0507 46.3242Z" fill="#E10303"/>
</g>
<defs>
<clipPath id="clip0">
<rect width="50" height="50" fill="white"/>
</clipPath>
</defs>
</svg>
