<svg width="42" height="42" fill="none" xmlns="http://www.w3.org/2000/svg">
  <g clip-path="url(#prefix__clip0)">
    <path
      d="M7.387 32.48c-.588 0-1.153.147-1.655.423A19.395 19.395 0 011.641 21C1.64 10.325 10.325 1.64 21 1.64c1.298 0 2.595.13 3.855.385A.82.82 0 0025.18.416 21.156 21.156 0 0021 0 20.863 20.863 0 006.15 6.15 20.863 20.863 0 000 21c0 4.718 1.602 9.323 4.52 13.014a3.42 3.42 0 00-.578 1.911c0 .92.358 1.786 1.009 2.437.65.65 1.516 1.009 2.436 1.009.92 0 1.785-.359 2.436-1.01a3.422 3.422 0 001.01-2.436c0-.92-.359-1.785-1.01-2.436a3.423 3.423 0 00-2.436-1.009zm1.276 4.722c-.34.34-.794.528-1.276.528s-.935-.188-1.276-.528a1.793 1.793 0 01-.529-1.276c0-.483.188-.936.529-1.277.34-.34.794-.528 1.276-.528s.935.188 1.276.528c.34.341.529.794.529 1.276 0 .483-.188.936-.529 1.277zM37.48 7.985a3.451 3.451 0 00-.43-4.347 3.424 3.424 0 00-2.437-1.009c-.92 0-1.786.359-2.436 1.01a3.423 3.423 0 00-1.01 2.435c0 .92.359 1.786 1.01 2.437.65.65 1.516 1.009 2.436 1.009.588 0 1.153-.147 1.655-.423A19.395 19.395 0 0140.359 21c0 10.675-8.684 19.36-19.36 19.36-1.284 0-2.569-.127-3.818-.377a.82.82 0 00-.322 1.609c1.355.27 2.748.408 4.14.408 5.61 0 10.884-2.184 14.85-6.15A20.862 20.862 0 0042 21 21.04 21.04 0 0037.48 7.985zm-4.143-.634a1.793 1.793 0 01-.529-1.277c0-.481.188-.935.529-1.276.34-.34.794-.528 1.276-.528s.935.188 1.276.528a1.807 1.807 0 010 2.553c-.34.34-.794.528-1.276.528s-.935-.188-1.276-.528z"
      fill="#000" />
    <path
      d="M17.615 35.11c0 .453.367.82.82.82h5.13a.82.82 0 00.82-.82v-1.59c1.078-.291 2.11-.719 3.078-1.277l1.123 1.123a.82.82 0 001.16 0l3.626-3.628a.82.82 0 000-1.16l-1.122-1.122c.559-.969.986-2 1.276-3.079h1.584a.82.82 0 00.82-.82v-5.13a.82.82 0 00-.82-.82h-1.584a12.847 12.847 0 00-1.276-3.078l1.116-1.115a.821.821 0 000-1.16l-3.629-3.626a.82.82 0 00-1.16 0l-1.114 1.114c-.969-.558-2-.985-3.078-1.276V6.891a.82.82 0 00-.82-.82h-5.13a.82.82 0 00-.82.82v1.576c-1.078.29-2.11.717-3.079 1.275l-1.114-1.114a.82.82 0 00-1.16 0l-3.628 3.625a.82.82 0 000 1.16l1.115 1.116c-.558.97-.985 2-1.276 3.079H6.892a.82.82 0 00-.82.82l-.003 5.129a.82.82 0 00.82.82h1.584c.29 1.079.718 2.11 1.276 3.08l-1.121 1.12a.82.82 0 000 1.16l3.625 3.629a.82.82 0 001.16 0l1.123-1.123c.97.558 2 .986 3.079 1.276v1.59zm-2.757-4.592a.82.82 0 00-1.026.109l-.998.999-2.466-2.468.998-.998a.82.82 0 00.109-1.025 11.228 11.228 0 01-1.554-3.75.82.82 0 00-.802-.648h-1.41l.003-3.489h1.407a.82.82 0 00.802-.648 11.23 11.23 0 011.554-3.75.82.82 0 00-.11-1.024l-.99-.992 2.467-2.466.99.99a.82.82 0 001.026.11 11.224 11.224 0 013.75-1.554.82.82 0 00.647-.802V7.71h3.489v1.4c0 .387.27.722.648.803 1.337.287 2.599.81 3.75 1.553a.82.82 0 001.025-.109l.99-.99 2.468 2.466-.991.991a.82.82 0 00-.11 1.026 11.234 11.234 0 011.554 3.75.82.82 0 00.803.647h1.41v3.489h-1.41a.82.82 0 00-.803.648 11.225 11.225 0 01-1.553 3.75.82.82 0 00.109 1.025l.997.998-2.465 2.467-.999-.998a.82.82 0 00-1.025-.11 11.238 11.238 0 01-3.75 1.555.82.82 0 00-.648.802v1.415h-3.489v-1.415a.82.82 0 00-.647-.802 11.232 11.232 0 01-3.75-1.554z"
      fill="#E10303" />
    <path
      d="M27.778 21A6.786 6.786 0 0021 14.222 6.786 6.786 0 0014.222 21 6.786 6.786 0 0021 27.778 6.786 6.786 0 0027.778 21zm-11.916 0A5.143 5.143 0 0121 15.863 5.143 5.143 0 0126.137 21 5.143 5.143 0 0121 26.138 5.143 5.143 0 0115.862 21z"
      fill="#E10303" />
    <path
      d="M28.553 3.102a.826.826 0 00.58-.24.83.83 0 00.24-.58.829.829 0 00-.24-.58.826.826 0 00-.58-.241.824.824 0 00-.82.82.824.824 0 00.82.821zM13.482 38.912a.827.827 0 00-.58.24.827.827 0 00-.24.58c0 .217.088.428.24.58.153.153.365.241.58.241a.827.827 0 00.58-.24.827.827 0 00.24-.58.827.827 0 00-.24-.58.827.827 0 00-.58-.24z"
      fill="#000" />
  </g>
  <defs>
    <clipPath id="prefix__clip0">
      <path fill="#fff" d="M0 0h42v42H0z" />
    </clipPath>
  </defs>
</svg>
