<svg width="49" height="66" fill="none" xmlns="http://www.w3.org/2000/svg">
  <path
    d="M47.518 11.666a2.5 2.5 0 01.732 1.768v48.57a2.5 2.5 0 01-2.5 2.5H3a2.5 2.5 0 01-2.5-2.5v-59A2.5 2.5 0 013 .504h32.32a2.5 2.5 0 011.768.732l10.43 10.43z"
    fill="#fff" stroke="#E10303" />
  <path d="M48.75 13.191H36.562V1.004" fill="#E10303" />
  <mask id="prefix__a" fill="#fff">
    <path d="M20.4 43.703v17.182h-1.185l-4.74-4.74-4.74 4.74H8.55V43.703" />
  </mask>
  <path
    d="M20.4 60.885v1h1v-1h-1zm-1.185 0l-.707.707.292.293h.415v-1zm-4.74-4.74l.707-.707-.707-.707-.707.707.707.707zm-4.74 4.74v1h.414l.293-.293-.707-.707zm-1.185 0h-1v1h1v-1zM19.4 43.703v17.182h2V43.703h-2zm1 16.182h-1.185v2H20.4v-2zm-.478.293l-4.74-4.74-1.414 1.414 4.74 4.74 1.414-1.414zm-6.154-4.74l-4.74 4.74 1.414 1.414 4.74-4.74-1.414-1.414zm-4.033 4.447H8.55v2h1.185v-2zm-.185 1V43.703h-2v17.182h2z"
    fill="#E10303" mask="url(#prefix__a)" />
  <path d="M14.475 46.073a9.48 9.48 0 100-18.96 9.48 9.48 0 000 18.96z" fill="#E10303" />
  <path d="M14.5 45a8.5 8.5 0 100-17 8.5 8.5 0 000 17z" fill="#fff" />
</svg>
