<svg width="65" height="59" fill="none" xmlns="http://www.w3.org/2000/svg">
  <path
    d="M64.048 3.72v42.598a2.505 2.505 0 01-2.505 2.504H3.457a2.505 2.505 0 01-2.505-2.505V3.722a2.506 2.506 0 012.505-2.506h58.086a2.506 2.506 0 012.505 2.506z"
    fill="#fff" />
  <path
    d="M47.734 43.74v7.424L32.5 57.374l-15.234-6.21v-3.66L32.5 53.565l10.872-4.411a1.682 1.682 0 001.051-1.56V45.09l3.311-1.35z"
    fill="#fff" />
  <path
    d="M61.543.263H3.457A3.461 3.461 0 000 3.72v42.597a3.461 3.461 0 003.457 3.457h10.09a.952.952 0 100-1.904H3.457a1.555 1.555 0 01-1.553-1.553V11.02H51.67a.952.952 0 100-1.904H1.904V3.72c0-.856.697-1.553 1.553-1.553h58.086c.856 0 1.553.697 1.553 1.553v5.396h-6.941a.952.952 0 000 1.904h6.94v35.297c0 .856-.696 1.553-1.552 1.553H51.539a.952.952 0 100 1.904h10.004A3.461 3.461 0 0065 46.317V3.72A3.461 3.461 0 0061.543.263z"
    fill="#E10303" />
  <path
    d="M5.316 4.69a.952.952 0 000 1.905h3.91a.952.952 0 000-1.905h-3.91zM54.974 28.526a.952.952 0 000-1.763L32.86 17.751a.953.953 0 00-.718 0l-22.115 9.012a.952.952 0 000 1.763l6.288 2.563v20.076c0 .387.234.736.592.882l4.194 1.708v4.03a.952.952 0 101.904 0V54.53l9.137 3.724a.953.953 0 00.718 0l15.235-6.208a.952.952 0 00.593-.882V31.089l6.287-2.563zM21.1 33.04v11.236L18.218 43.1V31.865l2.882 1.174zm-2.882 17.486v-5.368L21.1 46.33V51.7l-2.882-1.174zm14.282 5.82l-9.496-3.87v-5.368l9.137 3.723a.951.951 0 00.718 0l13.923-5.673v5.368L32.5 56.345zM46.782 43.1L32.5 48.92l-9.496-3.87V33.816l9.137 3.723a.951.951 0 00.718 0l5.662-2.307a.952.952 0 10-.718-1.763l-5.303 2.16-7.925-3.23 8.284-3.375a.952.952 0 10-.718-1.763l-10.09 4.11-9.143-3.725L32.5 19.66l19.592 7.984-10.16 4.14a.952.952 0 10.718 1.763l4.132-1.683V43.1z"
    fill="#E10303" /></svg>
