<svg width="66" height="68" fill="none" xmlns="http://www.w3.org/2000/svg">
  <path
    d="M22.344 33.469a.762.762 0 001.077 0l6.61-6.61c.63-.63 1.708-.184 1.708.707v1.079a.762.762 0 101.523 0V23.55a1 1 0 00-1-1h-5.094a.762.762 0 100 1.523h1.08c.89 0 1.336 1.077.706 1.707l-6.61 6.61a.762.762 0 000 1.078zm11.679 7.601a1 1 0 00-1-1H13.53a1 1 0 01-1-1v-2.062a1 1 0 00-1-1H1a1 1 0 00-1 1V67a1 1 0 001 1h36.086a1 1 0 001-1V45.133a1 1 0 00-1-1h-2.063a1 1 0 01-1-1V41.07zM4.063 65.477a1 1 0 01-1 1h-.54a1 1 0 01-1-1V38.53a1 1 0 011-1h7.483a1 1 0 011 1v2.063a1 1 0 001 1H31.5a1 1 0 011 1v.539a1 1 0 01-1 1H5.062a1 1 0 00-1 1v20.344zm31.5-19.82a1 1 0 011 1v18.82a1 1 0 01-1 1H6.585a1 1 0 01-1-1v-18.82a1 1 0 011-1h28.976zm8.901 6.316a.762.762 0 001.077 0l6.61-6.61c.63-.63 1.708-.184 1.708.707v1.079a.762.762 0 001.523 0v-5.094a1 1 0 00-1-1h-5.094a.762.762 0 100 1.524h1.08c.89 0 1.336 1.077.706 1.707l-6.61 6.61a.762.762 0 000 1.077z"
    fill="#E10303" />
  <path
    d="M64.518 6.162a2.5 2.5 0 01.732 1.768v24.737a2.5 2.5 0 01-2.5 2.5H42a2.5 2.5 0 01-2.5-2.5V3A2.5 2.5 0 0142 .5h15.82a2.5 2.5 0 011.768.732l4.93 4.93z"
    fill="#fff" stroke="#E10303" />
  <path d="M65.75 7.236h-6.688V.55" fill="#E10303" /></svg>
