<svg viewBox="0 0 30 30" fill="none" xmlns="http://www.w3.org/2000/svg">
  <path
    d="M20.452 9.448h0l.005.005a7.675 7.675 0 012.241 5.457c0 4.277-3.473 7.788-7.743 7.788a7.543 7.543 0 01-3.676-.928l-.175-.097-.193.05-3.534.911.943-3.448.053-.192-.094-.176c-.643-1.2-1.022-2.516-1.022-3.863h0v-.005C7.215 10.68 10.682 7.167 15 7.167c2.032 0 4.018.804 5.452 2.28zM8.165 21.269l-.217.825.826-.213 2.431-.63.085.043c1.116.675 2.417 1.008 3.71 1.008a7.074 7.074 0 003.826-1.113c3.48-2.132 4.487-6.629 2.366-10.098-2.13-3.486-6.63-4.495-10.101-2.373-3.486 2.13-4.497 6.675-2.372 10.104l.005.007.004.007.056.083-.619 2.35zm8.954-4.743a1.06 1.06 0 01.013-.014 25.734 25.734 0 001.014.469l.09.04.023.01.006.002.329.15c-.04.199-.073.33-.12.428l-.027.033c-.026.03-.06.063-.107.11a.727.727 0 01-.081.067l-.006.004c-.043.032-.113.084-.183.155l-.074.074-.006.003-.015.006c-.04.018-.117.05-.202.104a1.18 1.18 0 01-.43.117h-.003 0-.002 0-.001 0-.002 0-.003 0-.002 0-.002 0-.002 0-.002 0-.002 0-.003 0-.002 0-.002 0-.002 0-.003 0-.002 0-.003 0-.002 0-.003 0-.002 0-.003 0-.002 0-.002 0-.002 0-.002 0-.004 0-.002 0-.004 0-.002 0-.002 0-.002 0-.002 0-.002 0-.003 0-.002 0-.002 0-.003 0-.002 0-.002 0-.003 0-.002 0-.002 0-.004 0-.002 0-.002 0-.004 0-.002 0-.002 0-.004 0-.002 0-.002 0-.005 0-.002 0-.002 0-.005 0-.002 0-.002 0-.006 0-.002 0-.002 0-.006 0-.002 0-.002 0-.006 0-.002 0-.002 0-.002 0-.005 0-.002 0-.002 0-.002 0-.006 0-.002 0-.002 0-.002 0-.005 0-.002 0-.002 0-.002 0-.006 0-.002 0-.002 0-.002 0-.006 0-.002 0-.002 0-.002 0-.007 0-.002 0-.002 0-.002 0-.006 0-.002 0-.002 0-.002 0-.005 0-.002 0-.002 0-.002 0-.006 0-.002 0-.002 0-.002 0-.005 0-.002 0-.002 0-.002 0-.005 0-.002 0-.002 0-.006 0-.002 0-.002 0-.006 0-.002 0-.002 0-.005 0-.002 0-.002 0-.005 0-.002 0-.002 0-.005 0H17h0-.002 0-.004 0-.002 0-.002 0-.003 0-.002 0-.002 0-.004 0-.002 0-.002 0-.003 0-.002 0-.002 0-.002 0-.002 0-.002 0-.002 0a2.073 2.073 0 00-.211-.038.964.964 0 01-.15-.026l-.016-.006-.017-.004a7.538 7.538 0 01-3-1.57 1.59 1.59 0 00-.196-.208 5.828 5.828 0 00-.076-.068 2.05 2.05 0 01-.104-.096l-.18-.18-.005-.006-.006-.005a7 7 0 01-1.544-2.12l-.036-.106-.006-.02-.008-.019a2.173 2.173 0 01-.185-.839 1.8 1.8 0 01.374-1.07c.058-.06.101-.118.13-.156a1.751 1.751 0 00.144-.125l.008-.006c.047-.036.06-.043.059-.043 0 0 0 0 0 0l.041-.02a2.46 2.46 0 00.033-.009h.003l.031-.008h.373a26.081 26.081 0 01.565 1.296l.067.179a.63.63 0 01.02.063v-.002l.006.027a.163.163 0 01-.01.026c-.063.075-.107.15-.131.19l-.006.009c-.03.05-.04.063-.04.064a4.585 4.585 0 00-.316.357l-.022.028a.668.668 0 00-.155.351 1.37 1.37 0 00-.011.193v.125l.053.106a.213.213 0 01.011.027l.017.042c.015.038.04.097.086.16l.02.041.006.01.005.01c.258.464.61.863.94 1.191l.353-.353-.354.353c.066.065.14.126.192.166l.007.006c.062.05.095.077.117.099.418.418.927.718 1.453.957l.01.005.01.004.157.063c.043.03.085.054.121.072.05.025.17.081.314.081h.045a.75.75 0 00.633-.341l.54-.615z"
    stroke="#E10303" /></svg>
